<svg width="306" height="469" viewBox="0 0 306 469" fill="none" xmlns="http://www.w3.org/2000/svg">
<path d="M293.933 201.067C296.45 206.357 298.055 215.39 298.052 224.925C298.055 235.825 295.957 247.392 290.831 254.823C290.752 254.937 290.781 255.092 290.894 255.17C291.007 255.248 291.163 255.22 291.241 255.107C296.46 247.526 298.548 235.889 298.55 224.925C298.549 215.331 296.95 206.261 294.383 200.853C294.324 200.729 294.176 200.676 294.051 200.735C293.926 200.794 293.874 200.943 293.933 201.067V201.067Z" fill="#FEFEFE"/>
<path d="M303.395 168.363C298.862 156.474 287.227 151.353 276.801 155.329C266.373 159.304 261.102 170.871 265.634 182.759C269.606 193.175 280.198 201.464 289.774 200.684C289.788 200.881 289.798 201.08 289.872 201.273C290.281 202.345 291.48 202.883 292.553 202.474L296.435 200.994C297.507 200.586 298.045 199.385 297.635 198.314C297.561 198.12 297.436 197.966 297.317 197.809C304.98 192.015 307.366 178.779 303.395 168.363V168.363Z" fill="#FBC83E"/>
<path d="M11.3568 414.067C8.83994 419.357 7.23485 428.39 7.23773 437.925C7.23485 448.825 9.33286 460.392 14.459 467.823C14.5375 467.937 14.509 468.092 14.3954 468.17C14.2826 468.248 14.1267 468.22 14.0493 468.107C8.82974 460.526 6.74192 448.889 6.7393 437.925C6.74113 428.331 8.33973 419.261 10.9066 413.853C10.9654 413.729 11.114 413.676 11.2388 413.735C11.3634 413.794 11.4159 413.943 11.3568 414.067V414.067Z" fill="#FEFEFE"/>
<path d="M1.89442 381.363C6.42821 369.474 18.0624 364.353 28.4891 368.329C38.9169 372.304 44.188 383.871 39.6553 395.759C35.6837 406.175 25.0916 414.464 15.5157 413.684C15.5021 413.881 15.4919 414.08 15.4178 414.273C15.0092 415.345 13.8093 415.883 12.7366 415.474L8.8546 413.994C7.78323 413.586 7.24502 412.385 7.65473 411.314C7.72877 411.12 7.85333 410.966 7.97237 410.809C0.309737 405.015 -2.07608 391.779 1.89442 381.363V381.363Z" fill="#88D0F4"/>
<path d="M72.3568 47.0674C69.8399 52.3567 68.2348 61.3901 68.2377 70.9252C68.2348 81.8255 70.3329 93.3922 75.459 100.823C75.5375 100.937 75.509 101.092 75.3954 101.17C75.2826 101.248 75.1267 101.22 75.0493 101.107C69.8297 93.5261 67.7419 81.8893 67.7393 70.9252C67.7411 61.3309 69.3397 52.2607 71.9066 46.8531C71.9654 46.7285 72.114 46.676 72.2388 46.7351C72.3634 46.7939 72.4159 46.9426 72.3568 47.0674V47.0674Z" fill="#88D0F4"/>
<path d="M62.8944 14.3629C67.4282 2.47419 79.0624 -2.64748 89.4891 1.32878C99.9169 5.30399 105.188 16.8707 100.655 28.7594C96.6837 39.1752 86.0916 47.4636 76.5157 46.6845C76.5021 46.8812 76.4919 47.0795 76.4178 47.2734C76.0092 48.345 74.8093 48.8832 73.7366 48.4743L69.8546 46.9937C68.7832 46.5858 68.245 45.385 68.6547 44.3136C68.7288 44.1197 68.8533 43.9656 68.9724 43.8086C61.3097 38.0151 58.9239 24.7787 62.8944 14.3629V14.3629Z" fill="#88D0F4"/>
</svg>
