<svg width="311" height="504" viewBox="0 0 311 504" fill="none" xmlns="http://www.w3.org/2000/svg">
<path d="M41.7625 78.9436L41.787 81.4924C41.787 81.4924 32.5134 83.8077 29.8684 76.21L30.9996 75.1986C30.9996 75.1986 34.8313 81.5351 41.7625 78.9436V78.9436Z" fill="#FEFEFE"/>
<path d="M136.498 345.134L135.784 347.581C135.784 347.581 126.238 347.114 125.904 339.076L127.28 338.435C127.28 338.435 129.114 345.61 136.498 345.134V345.134Z" fill="#FFE132"/>
<path d="M309.498 390.134L308.784 392.581C308.784 392.581 299.238 392.114 298.904 384.076L300.28 383.435C300.28 383.435 302.114 390.61 309.498 390.134V390.134Z" fill="#FFE132"/>
<path d="M54.4984 475.134L53.7844 477.581C53.7844 477.581 44.2376 477.114 43.904 469.076L45.2795 468.435C45.2795 468.435 47.1139 475.61 54.4984 475.134V475.134Z" fill="#FFE132"/>
<path d="M252.796 71.3307L254.264 73.4145C254.264 73.4145 247.946 80.5872 241.454 75.8361L241.811 74.3611C241.811 74.3611 248.563 77.4003 252.796 71.3307V71.3307Z" fill="#EA6297"/>
<path d="M11.7961 236.331L13.2639 238.415C13.2639 238.415 6.94619 245.587 0.453981 240.836L0.81063 239.361C0.81063 239.361 7.5632 242.4 11.7961 236.331V236.331Z" fill="#EA6297"/>
<path d="M166.937 1.17673L169.316 2.09108C169.316 2.09108 168.059 11.5664 160.021 11.2324L159.496 9.80847C159.496 9.80847 166.798 8.57524 166.937 1.17673V1.17673Z" fill="#FBC83E"/>
<path d="M277.937 491.177L280.316 492.091C280.316 492.091 279.059 501.566 271.021 501.232L270.496 499.808C270.496 499.808 277.798 498.575 277.937 491.177V491.177Z" fill="#FEFEFE"/>
</svg>
