<svg width="204" height="191" viewBox="0 0 204 191" fill="none" xmlns="http://www.w3.org/2000/svg">
<path d="M33.832 165.928H28.952L28.888 165.816L33.752 159.4V157H23.96L24.312 160.072H28.344L28.392 160.184L23.48 166.6V169H33.832V165.928ZM38.5685 167.096H41.7365L42.1845 169H46.2325L43.1285 157H37.1925L34.0885 169H38.1365L38.5685 167.096ZM40.2645 160.68L41.0325 164.04H39.2725L40.0565 160.68H40.2645ZM50.7356 163.176H50.8476L52.3356 169H55.2636L56.7356 163.176H56.8636L57.0876 169H61.1036L60.3836 157H55.3596L53.8716 163.112H53.7276L52.2396 157H47.2316L46.4956 169H50.5116L50.7356 163.176ZM77.207 165.928H72.327L72.263 165.816L77.127 159.4V157H67.335L67.687 160.072H71.719L71.767 160.184L66.855 166.6V169H77.207V165.928ZM81.9435 167.096H85.1115L85.5595 169H89.6075L86.5035 157H80.5675L77.4635 169H81.5115L81.9435 167.096ZM83.6395 160.68L84.4075 164.04H82.6475L83.4315 160.68H83.6395ZM94.2706 163.784H94.1906V169H90.3506V157H94.1906V161.896H94.2706C94.2813 161.704 94.3026 161.533 94.3346 161.384C94.3666 161.224 94.4093 161.085 94.4626 160.968L96.3346 157H100.495L97.6146 162.888L100.591 169H96.4306L94.4626 164.696C94.4093 164.579 94.3666 164.445 94.3346 164.296C94.3026 164.147 94.2813 163.976 94.2706 163.784ZM105.581 169V157H101.741V169H105.581ZM110.803 167.096H113.971L114.419 169H118.467L115.363 157H109.427L106.323 169H110.371L110.803 167.096ZM112.499 160.68L113.267 164.04H111.507L112.291 160.68H112.499ZM127.303 167.096H130.471L130.919 169H134.967L131.863 157H125.927L122.823 169H126.871L127.303 167.096ZM128.999 160.68L129.767 164.04H128.007L128.791 160.68H128.999ZM139.47 163.176H139.582L141.07 169H143.998L145.47 163.176H145.598L145.822 169H149.838L149.118 157H144.094L142.606 163.112H142.462L140.974 157H135.966L135.23 169H139.246L139.47 163.176ZM155.033 163.176H155.145L156.633 169H159.561L161.033 163.176H161.161L161.385 169H165.401L164.681 157H159.657L158.169 163.112H158.025L156.537 157H151.529L150.793 169H154.809L155.033 163.176ZM170.131 167.096H173.299L173.747 169H177.795L174.691 157H168.755L165.651 169H169.699L170.131 167.096ZM171.827 160.68L172.595 164.04H170.835L171.619 160.68H171.827Z" fill="white"/>
<path d="M69.876 184.736L67.968 184.28C67.472 184.16 67.116 183.96 66.9 183.68C66.684 183.4 66.576 183.008 66.576 182.504C66.576 181.76 66.788 181.216 67.212 180.872C67.636 180.528 68.308 180.356 69.228 180.356C69.612 180.356 69.956 180.376 70.26 180.416C70.572 180.448 70.852 180.5 71.1 180.572V181.28C70.836 181.208 70.544 181.156 70.224 181.124C69.904 181.084 69.568 181.064 69.216 181.064C68.528 181.064 68.044 181.168 67.764 181.376C67.484 181.576 67.344 181.932 67.344 182.444C67.344 182.78 67.412 183.032 67.548 183.2C67.684 183.368 67.908 183.488 68.22 183.56L70.128 184.028C70.744 184.172 71.156 184.38 71.364 184.652C71.572 184.916 71.676 185.324 71.676 185.876C71.676 186.684 71.468 187.256 71.052 187.592C70.636 187.92 69.972 188.084 69.06 188.084C68.572 188.084 68.1 188.052 67.644 187.988C67.188 187.924 66.828 187.84 66.564 187.736V187.004C66.964 187.124 67.372 187.216 67.788 187.28C68.204 187.336 68.628 187.364 69.06 187.364C69.732 187.364 70.204 187.264 70.476 187.064C70.748 186.856 70.884 186.464 70.884 185.888C70.884 185.528 70.816 185.268 70.68 185.108C70.544 184.948 70.276 184.824 69.876 184.736ZM77.9855 187.268V188H73.0535V180.476H77.8775V181.184H73.8215V183.8H77.4335V184.484H73.8215V187.268H77.9855ZM80.1613 185.468V188H79.3933V180.476H81.8893C82.9213 180.476 83.6653 180.664 84.1213 181.04C84.5773 181.416 84.8053 182.032 84.8053 182.888C84.8053 183.76 84.5693 184.408 84.0973 184.832C83.6253 185.256 82.9013 185.468 81.9253 185.468H80.1613ZM84.0253 182.888C84.0253 182.28 83.8613 181.844 83.5333 181.58C83.2053 181.316 82.6573 181.184 81.8893 181.184H80.1613V184.784H81.8893C82.6413 184.784 83.1853 184.636 83.5213 184.34C83.8573 184.036 84.0253 183.552 84.0253 182.888ZM91.3884 180.476V181.184H88.7604V188H87.9924V181.184H85.3644V180.476H91.3884ZM97.4738 187.268V188H92.5418V180.476H97.3658V181.184H93.3098V183.8H96.9218V184.484H93.3098V187.268H97.4738ZM105.842 180.476V188H105.11V181.652L102.71 186.476H102.014L99.6136 181.64V188H98.8816V180.476H99.8656L102.374 185.552L104.882 180.476H105.842ZM112.997 185.852C112.997 186.62 112.793 187.172 112.385 187.508C111.977 187.836 111.317 188 110.405 188H107.741V180.476H110.393C111.217 180.476 111.801 180.616 112.145 180.896C112.497 181.168 112.673 181.64 112.673 182.312C112.673 182.808 112.581 183.192 112.397 183.464C112.213 183.736 111.909 183.916 111.485 184.004C111.989 184.06 112.365 184.244 112.613 184.556C112.869 184.86 112.997 185.292 112.997 185.852ZM111.953 182.42C111.953 181.948 111.837 181.62 111.605 181.436C111.381 181.252 110.981 181.16 110.405 181.16H108.509V183.788H110.405C110.949 183.788 111.341 183.68 111.581 183.464C111.829 183.248 111.953 182.9 111.953 182.42ZM112.253 185.816C112.253 185.304 112.113 184.948 111.833 184.748C111.561 184.548 111.085 184.448 110.405 184.448H108.509V187.304H110.405C111.077 187.304 111.553 187.196 111.833 186.98C112.113 186.756 112.253 186.368 112.253 185.816ZM119.411 187.268V188H114.479V180.476H119.303V181.184H115.247V183.8H118.859V184.484H115.247V187.268H119.411ZM121.587 185.216V188H120.819V180.476H123.315C124.347 180.476 125.091 180.656 125.547 181.016C126.003 181.376 126.231 181.96 126.231 182.768C126.231 183.432 126.079 183.96 125.775 184.352C125.471 184.744 125.011 185 124.395 185.12L126.411 188H125.487L123.579 185.216H121.587ZM125.451 182.768C125.451 182.2 125.287 181.796 124.959 181.556C124.631 181.308 124.083 181.184 123.315 181.184H121.587V184.532H123.315C124.059 184.532 124.599 184.392 124.935 184.112C125.279 183.832 125.451 183.384 125.451 182.768ZM128.212 187.148L127.936 188.924C127.92 189.028 127.88 189.104 127.816 189.152C127.76 189.208 127.684 189.236 127.588 189.236H127.372L127.444 187.148H128.212ZM133.988 188H133.22V181.136L130.868 181.436V180.764L133.988 180.356V188ZM140.063 185.792C140.063 186.568 139.863 187.144 139.463 187.52C139.071 187.896 138.459 188.084 137.627 188.084C137.171 188.084 136.767 188.064 136.415 188.024C136.063 187.984 135.779 187.928 135.563 187.856V187.148C135.843 187.22 136.139 187.276 136.451 187.316C136.763 187.348 137.099 187.364 137.459 187.364C138.123 187.364 138.595 187.244 138.875 187.004C139.155 186.756 139.295 186.348 139.295 185.78C139.295 185.276 139.159 184.92 138.887 184.712C138.623 184.496 138.131 184.388 137.411 184.388C137.123 184.388 136.859 184.4 136.619 184.424C136.387 184.448 136.155 184.484 135.923 184.532V180.476H139.583V181.184H136.691V183.8C136.955 183.768 137.159 183.748 137.303 183.74C137.455 183.724 137.603 183.716 137.747 183.716C138.571 183.716 139.163 183.884 139.523 184.22C139.883 184.548 140.063 185.072 140.063 185.792Z" fill="white"/>
<g clip-path="url(#clip0_2_1296)">
<path d="M138 64.9823C138 70.5148 121.435 75 101 75C80.5657 75 64.0001 70.5148 64.0001 64.9823C64.0001 59.4497 80.5657 54.9646 101 54.9646C121.435 54.9646 138 59.4497 138 64.9823Z" fill="#6581C9"/>
<path d="M130.609 63.0229C130.609 67.2337 117.513 70.6468 101.358 70.6468C85.2025 70.6468 72.1064 67.2337 72.1064 63.0229V30.9288H130.609V63.0229H130.609Z" fill="#EFE2CF"/>
<path d="M130.609 39.2781V30.9287H72.1062V37.2218C72.1456 38.9348 73.5102 40.6831 75.1692 41.0448C76.5182 41.3384 77.9598 40.8852 79.287 41.2648C80.8309 41.7063 81.858 43.153 83.2212 44.0077C84.6942 44.9316 86.5975 45.1181 88.2193 44.4978C89.2304 44.1106 90.1462 43.4275 91.2185 43.2804C92.9797 43.0386 94.5533 44.276 96.1428 45.0802C99.6131 46.8358 104.02 46.5255 107.215 44.3002C107.741 43.9337 108.247 43.5144 108.85 43.2984C110.754 42.6175 112.673 44.1472 114.642 44.6046C116.412 45.0154 118.369 44.487 119.699 43.2387C120.315 42.6608 120.809 41.936 121.523 41.4869C122.933 40.5982 124.744 41.0103 126.403 41.1199C128.062 41.2294 130.263 40.9201 130.609 39.2781V39.2781Z" fill="#67594D"/>
<path d="M72.1062 56.2695C72.1062 60.4802 85.2025 63.8933 101.358 63.8933C117.513 63.8933 130.609 60.4802 130.609 56.2695V57.3584C130.609 61.5691 117.512 64.9823 101.358 64.9823C85.2024 64.9823 72.1062 61.5691 72.1062 57.3584V56.2695V56.2695Z" fill="#DB514B"/>
<path d="M72.1062 49.8062C72.1062 54.0168 85.2025 57.4301 101.358 57.4301C117.513 57.4301 130.609 54.0168 130.609 49.8062V50.8952C130.609 55.106 117.512 58.519 101.358 58.519C85.2024 58.519 72.1062 55.106 72.1062 50.8952V49.8062V49.8062Z" fill="#A57B4B"/>
<path d="M72.1062 42.0753C72.1062 46.2854 85.2025 49.699 101.358 49.699C117.513 49.699 130.609 46.2854 130.609 42.0753V43.1641C130.609 47.3744 117.512 50.788 101.358 50.788C85.2024 50.788 72.1062 47.3744 72.1062 43.1641V42.0753V42.0753Z" fill="#EFAF43"/>
<path d="M130.609 30.9287C130.609 35.139 117.513 38.5526 101.358 38.5526C85.2025 38.5526 72.1064 35.139 72.1064 30.9287C72.1064 26.7181 85.2027 23.3054 101.358 23.3054C117.513 23.3054 130.609 26.7181 130.609 30.9287Z" fill="#716156"/>
<path d="M82.1139 30.8121C82.1139 31.3704 80.4647 31.8229 78.431 31.8229C76.3974 31.8229 74.7485 31.3703 74.7485 30.8121C74.7485 30.2538 76.3973 29.8009 78.431 29.8009C80.4647 29.8009 82.1139 30.2538 82.1139 30.8121Z" fill="#67594D"/>
<path d="M78.1546 23.1788C78.8742 24.292 80.1188 24.9124 81.1804 25.6984C82.2419 26.4843 83.2272 27.6914 83.0018 29.0007C82.8478 29.8944 82.1338 30.6158 81.3083 30.9739C79.6565 31.6896 74.6882 31.7581 73.976 29.5295C73.6147 28.4012 73.953 27.5925 74.5685 26.9077C75.7001 25.6496 77.7688 24.811 78.1545 23.179L78.1546 23.1788Z" fill="#DB514B"/>
<path d="M81.3083 30.9739C79.6565 31.6896 74.6882 31.7581 73.976 29.5295C73.6147 28.4012 73.953 27.5925 74.5685 26.9077C74.422 27.364 74.313 27.8259 74.4352 28.2889C74.6363 29.0503 75.3404 29.5608 76.0402 29.9099C77.6606 30.7189 79.5004 31.0069 81.3081 30.9738L81.3083 30.9739Z" fill="#C34541"/>
<path d="M128.148 30.8121C128.148 31.3704 126.5 31.8229 124.466 31.8229C122.432 31.8229 120.783 31.3703 120.783 30.8121C120.783 30.2538 122.432 29.8009 124.466 29.8009C126.5 29.8009 128.148 30.2538 128.148 30.8121Z" fill="#67594D"/>
<path d="M124.19 23.1788C124.91 24.292 126.154 24.9124 127.215 25.6984C128.276 26.4843 129.262 27.6914 129.036 29.0007C128.882 29.8944 128.169 30.6158 127.343 30.9739C125.691 31.6896 120.723 31.7581 120.01 29.5295C119.65 28.4012 119.988 27.5925 120.603 26.9077C121.735 25.6496 123.804 24.811 124.19 23.179L124.19 23.1788Z" fill="#DB514B"/>
<path d="M127.343 30.9739C125.691 31.6896 120.723 31.7581 120.01 29.5295C119.65 28.4012 119.988 27.5925 120.603 26.9077C120.457 27.364 120.348 27.8259 120.47 28.2889C120.671 29.0503 121.375 29.5608 122.075 29.9099C123.696 30.7189 125.535 31.0069 127.343 30.9738V30.9739Z" fill="#C34541"/>
<path d="M106.458 36.6478C106.458 37.257 104.659 37.7507 102.441 37.7507C100.223 37.7507 98.4248 37.2571 98.4248 36.6478C98.4248 36.0389 100.223 35.5453 102.441 35.5453C104.659 35.5453 106.458 36.0388 106.458 36.6478Z" fill="#67594D"/>
<path d="M102.14 28.3234C102.925 29.5371 104.282 30.2148 105.44 31.0719C106.597 31.9289 107.672 33.2449 107.426 34.6727C107.258 35.6477 106.479 36.4346 105.579 36.8248C103.778 37.6049 98.3598 37.6795 97.5825 35.2499C97.1887 34.0194 97.5578 33.1373 98.2291 32.3908C99.4628 31.0184 101.719 30.1037 102.14 28.3236V28.3234Z" fill="#DB514B"/>
<path d="M105.579 36.8247C103.778 37.6048 98.3598 37.6794 97.5825 35.2498C97.1887 34.0192 97.5578 33.1371 98.2291 32.3906C98.0688 32.8877 97.9499 33.3911 98.0833 33.8967C98.303 34.7268 99.0705 35.2833 99.8341 35.6643C101.602 36.5468 103.607 36.8614 105.579 36.8248V36.8247Z" fill="#C34541"/>
<path d="M104.697 25.0734C104.697 25.52 103.378 25.8821 101.751 25.8821C100.123 25.8821 98.804 25.5199 98.804 25.0734C98.804 24.6264 100.123 24.2643 101.751 24.2643C103.378 24.2643 104.697 24.6264 104.697 25.0734Z" fill="#67594D"/>
<path d="M101.53 18.967C102.106 19.857 103.101 20.3536 103.95 20.9822C104.8 21.6112 105.588 22.5769 105.408 23.6246C105.284 24.3395 104.713 24.9165 104.052 25.203C102.731 25.7753 98.7561 25.8298 98.1865 24.0475C97.8978 23.1445 98.1684 22.4976 98.6605 21.9496C99.5658 20.943 101.221 20.2718 101.53 18.967V18.967Z" fill="#DB514B"/>
<path d="M104.053 25.203C102.731 25.7753 98.7562 25.8298 98.1867 24.0475C97.898 23.1445 98.1686 22.4976 98.6606 21.9496C98.5438 22.3149 98.456 22.6841 98.5543 23.0548C98.7151 23.664 99.2784 24.0722 99.8382 24.3517C101.134 24.9995 102.606 25.2295 104.053 25.2033L104.053 25.203Z" fill="#C34541"/>
<path d="M83.3162 33.2833C83.3162 33.412 82.9518 33.5162 82.5032 33.5162C82.0541 33.5162 81.6906 33.412 81.6906 33.2833C81.6906 33.1549 82.0541 33.0505 82.5032 33.0505C82.9518 33.0505 83.3162 33.155 83.3162 33.2833Z" fill="#67594D"/>
<path d="M83.4674 32.3906C83.4674 31.8538 83.0361 31.4187 82.5046 31.4187C81.9731 31.4187 81.5417 31.8538 81.5417 32.3906C81.5417 32.9271 81.973 33.3624 82.5046 33.3624C83.0361 33.3624 83.4674 32.9271 83.4674 32.3906Z" fill="#FEFEFE"/>
<path d="M88.5258 34.6816C88.5258 34.8099 88.1617 34.9141 87.7127 34.9141C87.2645 34.9141 86.9005 34.8099 86.9005 34.6816C86.9005 34.5529 87.2646 34.4482 87.7127 34.4482C88.1617 34.4482 88.5258 34.5529 88.5258 34.6816Z" fill="#67594D"/>
<path d="M88.6768 33.7884C88.6768 33.2519 88.2463 32.8166 87.714 32.8166C87.1825 32.8166 86.7516 33.2519 86.7516 33.7884C86.7516 34.3248 87.1827 34.7603 87.714 34.7603C88.2463 34.7603 88.6768 34.325 88.6768 33.7884Z" fill="#FEFEFE"/>
<path d="M94.0556 35.7304C94.0556 35.8587 93.6915 35.9629 93.243 35.9629C92.794 35.9629 92.4303 35.8587 92.4303 35.7304C92.4303 35.6018 92.794 35.4976 93.243 35.4976C93.6915 35.4976 94.0556 35.6018 94.0556 35.7304Z" fill="#67594D"/>
<path d="M94.2065 34.8372C94.2065 34.3003 93.7756 33.8658 93.2442 33.8658C92.7123 33.8658 92.2814 34.3003 92.2814 34.8372C92.2814 35.3741 92.7123 35.8086 93.2442 35.8086C93.7756 35.8086 94.2065 35.3741 94.2065 34.8372Z" fill="#FEFEFE"/>
<path d="M119.406 33.2833C119.406 33.412 119.77 33.5162 120.219 33.5162C120.668 33.5162 121.031 33.412 121.031 33.2833C121.031 33.1549 120.668 33.0505 120.219 33.0505C119.77 33.0505 119.406 33.155 119.406 33.2833Z" fill="#67594D"/>
<path d="M119.254 32.3906C119.254 31.8538 119.686 31.4187 120.217 31.4187C120.749 31.4187 121.18 31.8538 121.18 32.3906C121.18 32.9271 120.749 33.3624 120.217 33.3624C119.686 33.3624 119.254 32.9271 119.254 32.3906Z" fill="#FEFEFE"/>
<path d="M114.196 34.6816C114.196 34.8099 114.56 34.9141 115.009 34.9141C115.458 34.9141 115.821 34.8099 115.821 34.6816C115.821 34.5529 115.458 34.4482 115.009 34.4482C114.56 34.4482 114.196 34.5529 114.196 34.6816Z" fill="#67594D"/>
<path d="M114.045 33.7884C114.045 33.2519 114.476 32.8166 115.007 32.8166C115.539 32.8166 115.97 33.2519 115.97 33.7884C115.97 34.3248 115.539 34.7603 115.007 34.7603C114.476 34.7603 114.045 34.325 114.045 33.7884Z" fill="#FEFEFE"/>
<path d="M108.666 35.7304C108.666 35.8587 109.03 35.9629 109.479 35.9629C109.928 35.9629 110.292 35.8587 110.292 35.7304C110.292 35.6018 109.928 35.4976 109.479 35.4976C109.03 35.4976 108.666 35.6018 108.666 35.7304Z" fill="#67594D"/>
<path d="M108.515 34.8372C108.515 34.3003 108.946 33.8658 109.478 33.8658C110.01 33.8658 110.44 34.3003 110.44 34.8372C110.44 35.3741 110.01 35.8086 109.478 35.8086C108.946 35.8086 108.515 35.3741 108.515 34.8372Z" fill="#FEFEFE"/>
<path d="M108.913 25.246C108.913 25.3618 108.586 25.4552 108.182 25.4552C107.779 25.4552 107.452 25.3618 107.452 25.246C107.452 25.1311 107.779 25.0371 108.182 25.0371C108.586 25.0371 108.913 25.1311 108.913 25.246Z" fill="#67594D"/>
<path d="M109.048 24.4441C109.048 23.9618 108.661 23.571 108.184 23.571C107.706 23.571 107.319 23.9618 107.319 24.4441C107.319 24.9265 107.706 25.3171 108.184 25.3171C108.661 25.3171 109.048 24.9265 109.048 24.4441Z" fill="#FEFEFE"/>
<path d="M114.015 25.7699C114.015 25.8857 113.688 25.9791 113.286 25.9791C112.882 25.9791 112.555 25.8857 112.555 25.7699C112.555 25.6546 112.882 25.5611 113.286 25.5611C113.688 25.5611 114.015 25.6546 114.015 25.7699Z" fill="#67594D"/>
<path d="M114.151 24.9681C114.151 24.4857 113.764 24.095 113.286 24.095C112.809 24.095 112.422 24.4857 112.422 24.9681C112.422 25.4499 112.809 25.841 113.286 25.841C113.764 25.841 114.151 25.4499 114.151 24.9681Z" fill="#FEFEFE"/>
<path d="M119.424 26.7123C119.424 26.8275 119.097 26.9215 118.694 26.9215C118.291 26.9215 117.964 26.8275 117.964 26.7123C117.964 26.5964 118.291 26.503 118.694 26.503C119.097 26.503 119.424 26.5964 119.424 26.7123Z" fill="#67594D"/>
<path d="M119.56 25.9099C119.56 25.4281 119.173 25.0372 118.696 25.0372C118.217 25.0372 117.83 25.4281 117.83 25.9099C117.83 26.3922 118.217 26.7829 118.696 26.7829C119.173 26.7829 119.56 26.3922 119.56 25.9099V25.9099Z" fill="#FEFEFE"/>
<path d="M94.6057 25.246C94.6057 25.3618 94.9325 25.4552 95.3354 25.4552C95.7389 25.4552 96.0658 25.3618 96.0658 25.246C96.0658 25.1311 95.7389 25.0371 95.3354 25.0371C94.9325 25.0371 94.6057 25.1311 94.6057 25.246Z" fill="#67594D"/>
<path d="M94.4697 24.4441C94.4697 23.9618 94.8567 23.571 95.3341 23.571C95.8124 23.571 96.1994 23.9618 96.1994 24.4441C96.1994 24.9265 95.8124 25.3171 95.3341 25.3171C94.8567 25.3171 94.4697 24.9265 94.4697 24.4441Z" fill="#FEFEFE"/>
<path d="M89.5029 25.7699C89.5029 25.8857 89.8297 25.9791 90.2331 25.9791C90.6361 25.9791 90.963 25.8857 90.963 25.7699C90.963 25.6546 90.6361 25.5611 90.2331 25.5611C89.8297 25.5611 89.5029 25.6546 89.5029 25.7699Z" fill="#67594D"/>
<path d="M89.3672 24.9681C89.3672 24.4857 89.7543 24.095 90.2317 24.095C90.7091 24.095 91.0966 24.4857 91.0966 24.9681C91.0966 25.4499 90.7091 25.841 90.2317 25.841C89.7543 25.841 89.3672 25.4499 89.3672 24.9681V24.9681Z" fill="#FEFEFE"/>
<path d="M84.094 26.7123C84.094 26.8275 84.4208 26.9215 84.8239 26.9215C85.2272 26.9215 85.5536 26.8275 85.5536 26.7123C85.5536 26.5964 85.2272 26.503 84.8239 26.503C84.4208 26.503 84.094 26.5964 84.094 26.7123Z" fill="#67594D"/>
<path d="M83.958 25.9099C83.958 25.4281 84.3456 25.0372 84.823 25.0372C85.3003 25.0372 85.6874 25.4281 85.6874 25.9099C85.6874 26.3922 85.3003 26.7829 84.823 26.7829C84.3456 26.7829 83.958 26.3922 83.958 25.9099V25.9099Z" fill="#FEFEFE"/>
<path d="M87.9439 30.146C87.9439 30.3574 87.4634 30.5288 86.8703 30.5288C86.2774 30.5288 85.7969 30.3574 85.7969 30.146C85.7969 29.935 86.2774 29.7633 86.8703 29.7633C87.4634 29.7633 87.9439 29.935 87.9439 30.146Z" fill="#67594D"/>
<path d="M99.3147 31.0929C99.3147 31.3039 98.8342 31.4751 98.2412 31.4751C97.6486 31.4751 97.1681 31.3039 97.1681 31.0929C97.1681 30.8814 97.6486 30.7098 98.2412 30.7098C98.8342 30.7098 99.3147 30.8815 99.3147 31.0929Z" fill="#67594D"/>
<path d="M107.222 30.6824C107.222 30.8933 106.741 31.0651 106.148 31.0651C105.556 31.0651 105.075 30.8933 105.075 30.6824C105.075 30.471 105.556 30.2996 106.148 30.2996C106.741 30.2996 107.222 30.471 107.222 30.6824Z" fill="#67594D"/>
<path d="M94.6654 26.9215C94.6654 27.1325 94.1849 27.3037 93.592 27.3037C92.9989 27.3037 92.5184 27.1325 92.5184 26.9215C92.5184 26.71 92.9989 26.5384 93.592 26.5384C94.1849 26.5384 94.6654 26.71 94.6654 26.9215V26.9215Z" fill="#67594D"/>
<path d="M86.6936 5.72742C86.6936 5.80972 86.6936 5.89149 86.6936 5.97326V8.61889C86.6936 8.66262 86.7287 8.69841 86.772 8.69841C86.816 8.69841 86.8508 8.66249 86.8508 8.61889V5.97326C86.8508 5.89149 86.8508 5.80972 86.8508 5.72742C86.8508 5.68355 86.8158 5.6483 86.772 5.6483C86.7287 5.6483 86.6936 5.68355 86.6936 5.72742Z" fill="#D0A764"/>
<path d="M86.8703 30.2671C86.3403 30.2671 85.9064 29.829 85.9064 29.2943V8.9229C85.9064 8.38775 86.3404 7.94975 86.8703 7.94975C87.4005 7.94975 87.8344 8.38789 87.8344 8.9229V29.2943C87.8344 29.829 87.4003 30.2671 86.8703 30.2671Z" fill="#078179"/>
<path d="M87.8344 8.9229C87.8344 8.83438 87.8185 8.74983 87.7963 8.66753L85.9066 10.575V12.1149L87.8344 10.1696V8.92277V8.9229Z" fill="#BBE1E1"/>
<path d="M87.8344 12.3462L85.9066 14.2922V15.8323L87.8344 13.8864V12.3462Z" fill="#BBE1E1"/>
<path d="M85.9066 19.0563L87.8344 17.1104V15.5703L85.9066 17.5163V19.0563Z" fill="#BBE1E1"/>
<path d="M85.9066 22.773L87.8344 20.8274V19.287L85.9066 21.2329V22.773Z" fill="#BBE1E1"/>
<path d="M85.9066 25.9975L87.8344 24.0516V22.5114L85.9066 24.4574V25.9975Z" fill="#BBE1E1"/>
<path d="M85.9066 29.2943C85.9066 29.4182 85.9319 29.5361 85.9744 29.6453L87.8344 27.7682V26.2281L85.9066 28.1736V29.2943V29.2943Z" fill="#BBE1E1"/>
<path d="M86.1011 6.71275C85.927 6.49063 85.869 6.19284 85.8884 5.91069C85.9084 5.62775 85.9991 5.35501 86.0961 5.08956C86.3268 4.45608 86.5979 3.83784 86.9066 3.23975C87.3073 4.11495 87.6129 5.0498 87.6562 6.01897C87.6656 6.23936 87.6585 6.47685 87.5318 6.65655C87.43 6.8018 87.2625 6.88808 87.0902 6.92664C86.731 7.00748 86.3479 7.02856 86.1008 6.71288L86.1011 6.71275Z" fill="#F09812"/>
<path d="M86.5844 6.83521C86.4971 6.82408 86.4099 6.80248 86.3364 6.75424C86.1743 6.64967 86.1083 6.43379 86.1322 6.24096C86.1565 6.04787 86.2552 5.87307 86.3621 5.71125C86.4688 5.54944 86.5874 5.39252 86.661 5.21282C86.7025 5.10865 86.7292 4.99812 86.7549 4.88866C86.9591 5.10958 87.1481 5.3639 87.2939 5.62484C87.4499 5.90394 87.4667 6.29106 87.3054 6.57254C87.1495 6.84475 86.8776 6.87298 86.5845 6.83495L86.5844 6.83521Z" fill="#EC761E"/>
<path d="M93.4151 2.48779C93.4151 2.57009 93.4151 2.65186 93.4151 2.73416V5.37927C93.4151 5.42313 93.4502 5.45878 93.4935 5.45878C93.537 5.45878 93.5723 5.423 93.5723 5.37927V2.73416C93.5723 2.65186 93.5723 2.57009 93.5723 2.48779C93.5723 2.44406 93.5368 2.40868 93.4935 2.40868C93.4502 2.40868 93.4151 2.44406 93.4151 2.48779V2.48779Z" fill="#D0A764"/>
<path d="M93.5918 27.0274C93.0617 27.0274 92.628 26.5897 92.628 26.0546V5.68315C92.628 5.148 93.0617 4.71027 93.5918 4.71027C94.1219 4.71027 94.5559 5.148 94.5559 5.68315V26.0546C94.5559 26.5897 94.1219 27.0274 93.5918 27.0274Z" fill="#EFAF43"/>
<path d="M94.556 5.68328C94.556 5.59436 94.5402 5.51033 94.5178 5.4279L92.6281 7.33536V8.87546L94.556 6.92996V5.68315V5.68328Z" fill="#DB514B"/>
<path d="M94.556 9.10672L92.6281 11.0521V12.5926L94.556 10.6467V9.10672Z" fill="#DB514B"/>
<path d="M92.6281 15.8166L94.556 13.8707V12.3311L92.6281 14.2766V15.8166Z" fill="#DB514B"/>
<path d="M92.6281 19.5333L94.556 17.5879V16.0474L92.6281 17.9933V19.5333Z" fill="#DB514B"/>
<path d="M92.6281 22.7578L94.556 20.8119V19.2718L92.6281 21.2178V22.7578Z" fill="#DB514B"/>
<path d="M92.6281 26.0548C92.6281 26.1786 92.6534 26.2965 92.6955 26.4057L94.5562 24.5286V22.9886L92.6283 24.9341V26.0548H92.6281Z" fill="#DB514B"/>
<path d="M92.8226 3.473C92.6485 3.25088 92.5905 2.95323 92.6099 2.67055C92.6299 2.38813 92.7206 2.11539 92.8176 1.84981C93.0479 1.21686 93.3194 0.598624 93.6281 0C94.0288 0.875738 94.3344 1.81005 94.3774 2.77922C94.3871 2.99975 94.38 3.2371 94.2533 3.41681C94.1515 3.56219 93.984 3.64833 93.8118 3.68716C93.4521 3.76814 93.069 3.78868 92.8223 3.473H92.8226Z" fill="#F09812"/>
<path d="M93.3052 3.59559C93.2184 3.58446 93.1313 3.56299 93.0576 3.51475C92.8956 3.41005 92.8295 3.19416 92.8534 3.00147C92.8777 2.80838 92.9761 2.63304 93.0828 2.47163C93.1901 2.30981 93.3082 2.1529 93.3814 1.97319C93.4239 1.8685 93.4504 1.7585 93.4762 1.64903C93.6803 1.86995 93.8694 2.12427 94.0151 2.38522C94.1714 2.66432 94.1879 3.0517 94.0261 3.33292C93.8707 3.60526 93.5988 3.63336 93.3052 3.59532V3.59559Z" fill="#EC761E"/>
<path d="M111.819 27.3037C111.819 27.5152 111.339 27.6865 110.746 27.6865C110.153 27.6865 109.672 27.5152 109.672 27.3037C109.672 27.0923 110.153 26.9215 110.746 26.9215C111.339 26.9215 111.819 27.0923 111.819 27.3037Z" fill="#67594D"/>
<path d="M118.614 30.8121C118.614 31.0231 118.134 31.1943 117.541 31.1943C116.948 31.1943 116.468 31.0231 116.468 30.8121C116.468 30.6007 116.948 30.429 117.541 30.429C118.134 30.429 118.614 30.6007 118.614 30.8121Z" fill="#67594D"/>
<path d="M110.569 2.94647C110.569 3.02785 110.569 3.11001 110.569 3.19178V5.83689C110.569 5.88128 110.604 5.9164 110.648 5.9164C110.691 5.9164 110.726 5.88115 110.726 5.83689V3.19178C110.726 3.11001 110.726 3.02785 110.726 2.94647C110.726 2.90261 110.691 2.86696 110.648 2.86696C110.604 2.86696 110.569 2.90274 110.569 2.94647Z" fill="#D0A764"/>
<path d="M110.746 27.4857C110.216 27.4857 109.782 27.0479 109.782 26.5125V6.14156C109.782 5.60641 110.216 5.16841 110.746 5.16841C111.276 5.16841 111.71 5.60655 111.71 6.14156V26.5125C111.71 27.0481 111.276 27.4857 110.746 27.4857Z" fill="#86398D"/>
<path d="M111.71 6.14143C111.71 6.0529 111.694 5.96795 111.672 5.88658L109.782 7.79364V9.33414L111.71 7.38824V6.14143Z" fill="#B574AD"/>
<path d="M111.71 9.56473L109.782 11.5108V13.0508L111.71 11.105V9.56473Z" fill="#B574AD"/>
<path d="M109.782 16.2748L111.71 14.3295V12.7888L109.782 14.7347V16.2748Z" fill="#B574AD"/>
<path d="M109.782 19.9915L111.71 18.0456V16.506L109.782 18.4514V19.9915Z" fill="#B574AD"/>
<path d="M109.782 23.2157L111.71 21.27V19.7301L109.782 21.676V23.2157Z" fill="#B574AD"/>
<path d="M109.782 26.5125C109.782 26.6372 109.807 26.7544 109.85 26.8642L111.71 24.9867V23.4468L109.782 25.3927V26.5125V26.5125Z" fill="#B574AD"/>
<path d="M109.976 3.93168C109.802 3.70956 109.745 3.41178 109.764 3.12883C109.784 2.84642 109.874 2.57407 109.971 2.30809C110.202 1.67461 110.473 1.05638 110.782 0.458282C111.183 1.33362 111.488 2.26794 111.532 3.23711C111.541 3.45803 111.534 3.69485 111.407 3.87536C111.305 4.02021 111.137 4.10648 110.966 4.14505C110.606 4.22589 110.223 4.24749 109.976 3.93181L109.976 3.93168Z" fill="#F09812"/>
<path d="M110.459 4.05373C110.373 4.0426 110.285 4.0206 110.211 3.97329C110.049 3.8678 109.984 3.65284 110.007 3.45975C110.032 3.26665 110.13 3.09172 110.237 2.9299C110.344 2.76769 110.463 2.61157 110.536 2.43107C110.578 2.32744 110.604 2.21744 110.631 2.10797C110.835 2.32876 111.023 2.58268 111.169 2.84376C111.325 3.12286 111.341 3.50997 111.181 3.79146C111.025 4.0642 110.753 4.09137 110.46 4.05386L110.459 4.05373Z" fill="#EC761E"/>
<path d="M97.9549 6.76457C97.9549 6.84648 97.9549 6.92864 97.9549 7.01054V9.65565C97.9549 9.69991 97.99 9.73516 98.0335 9.73516C98.0768 9.73516 98.1122 9.69978 98.1122 9.65565V7.01054C98.1122 6.92864 98.1122 6.84648 98.1122 6.76457C98.1122 6.72084 98.0766 6.68506 98.0335 6.68506C97.99 6.68506 97.9549 6.72084 97.9549 6.76457Z" fill="#D0A764"/>
<path d="M98.1318 31.3042C97.6022 31.3042 97.168 30.8666 97.168 30.331V9.95967C97.168 9.42492 97.602 8.98679 98.1318 8.98679C98.6619 8.98679 99.0959 9.42492 99.0959 9.95967V30.331C99.0959 30.8667 98.6618 31.3042 98.1318 31.3042Z" fill="#86398D"/>
<path d="M99.0959 9.95965C99.0959 9.87112 99.08 9.78657 99.0577 9.7052L97.168 11.6123V13.1522L99.0959 11.2062V9.95952V9.95965Z" fill="#B574AD"/>
<path d="M99.0959 13.383L97.168 15.329V16.869L99.0959 14.9235V13.383Z" fill="#B574AD"/>
<path d="M97.168 20.0935L99.0959 18.1474V16.6075L97.168 18.5535V20.0935Z" fill="#B574AD"/>
<path d="M97.168 23.8102L99.0959 21.8642V20.3242L97.168 22.2697V23.8102Z" fill="#B574AD"/>
<path d="M97.168 27.0342L99.0959 25.0887V23.5486L97.168 25.4942V27.0342Z" fill="#B574AD"/>
<path d="M97.168 30.331C97.168 30.4553 97.1932 30.5729 97.2353 30.6824L99.0959 28.8048V27.2648L97.168 29.2108V30.331V30.331Z" fill="#B574AD"/>
<path d="M97.3624 7.7503C97.1885 7.52765 97.1304 7.23 97.1499 6.94745C97.1697 6.66451 97.2605 6.3923 97.3576 6.12631C97.588 5.49323 97.8594 4.87513 98.168 4.2765C98.5689 5.15224 98.8744 6.08656 98.9173 7.05573C98.9272 7.27665 98.9199 7.51361 98.7932 7.69358C98.6915 7.83843 98.524 7.9247 98.3517 7.96367C97.9922 8.04464 97.6095 8.06558 97.3623 7.75043L97.3624 7.7503Z" fill="#F09812"/>
<path d="M97.8452 7.87236C97.7584 7.86123 97.6712 7.83923 97.5976 7.79192C97.4355 7.68643 97.3696 7.47147 97.3934 7.27784C97.4177 7.08475 97.516 6.90995 97.6228 6.74853C97.73 6.58632 97.8482 6.42981 97.9218 6.2497C97.9643 6.14567 97.9904 6.03567 98.0161 5.92607C98.2203 6.14699 98.4095 6.40131 98.5551 6.66199C98.711 6.94136 98.7279 7.32847 98.5662 7.60969C98.4106 7.88243 98.1387 7.91013 97.8452 7.87249V7.87236Z" fill="#EC761E"/>
<path d="M117.364 6.40303C117.364 6.48533 117.364 6.56697 117.364 6.64927V9.29437C117.364 9.33824 117.399 9.37362 117.442 9.37362C117.486 9.37362 117.521 9.33824 117.521 9.29437V6.64927C117.521 6.56697 117.521 6.48533 117.521 6.40303C117.521 6.35917 117.486 6.32352 117.442 6.32352C117.399 6.32352 117.364 6.3593 117.364 6.40303V6.40303Z" fill="#D0A764"/>
<path d="M117.541 30.943C117.011 30.943 116.577 30.5049 116.577 29.9699V9.59839C116.577 9.06324 117.011 8.62564 117.541 8.62564C118.071 8.62564 118.505 9.06324 118.505 9.59839V29.9699C118.505 30.505 118.071 30.943 117.541 30.943Z" fill="#078179"/>
<path d="M118.505 9.59839C118.505 9.50946 118.489 9.42544 118.467 9.34354L116.577 11.251V12.7907L118.505 10.8452V9.59839V9.59839Z" fill="#BBE1E1"/>
<path d="M118.505 13.0218L116.577 14.9673V16.5077L118.505 14.5618V13.0218Z" fill="#BBE1E1"/>
<path d="M116.577 19.7318L118.505 17.7858V16.2463L116.577 18.1918V19.7318Z" fill="#BBE1E1"/>
<path d="M116.577 23.4485L118.505 21.5025V19.9625L116.577 21.9084V23.4485Z" fill="#BBE1E1"/>
<path d="M116.577 26.673L118.505 24.727V23.187L116.577 25.1329V26.673Z" fill="#BBE1E1"/>
<path d="M116.577 29.9699C116.577 30.0937 116.603 30.2116 116.645 30.3208L118.505 28.4437V26.9032L116.577 28.8492V29.9699V29.9699Z" fill="#BBE1E1"/>
<path d="M116.772 7.38863C116.597 7.16599 116.539 6.86833 116.559 6.58579C116.579 6.30284 116.669 6.03063 116.766 5.76465C116.998 5.1317 117.268 4.51386 117.577 3.91524C117.978 4.79097 118.284 5.72489 118.326 6.69406C118.336 6.91498 118.33 7.15234 118.203 7.33191C118.101 7.47676 117.933 7.56357 117.761 7.6024C117.402 7.68284 117.018 7.70378 116.772 7.38863Z" fill="#F09812"/>
<path d="M117.255 7.51122C117.168 7.49956 117.08 7.47769 117.006 7.43025C116.844 7.32515 116.778 7.1098 116.803 6.91671C116.827 6.72361 116.925 6.54828 117.032 6.387C117.139 6.22505 117.258 6.06814 117.331 5.88843C117.373 5.78387 117.4 5.67387 117.425 5.56427C117.629 5.78519 117.819 6.03991 117.965 6.30059C118.12 6.57956 118.137 6.96707 117.976 7.24829C117.82 7.5205 117.548 7.5486 117.255 7.51109L117.255 7.51122Z" fill="#EC761E"/>
<path d="M105.972 6.17046C105.972 6.25236 105.972 6.33453 105.972 6.4163V9.0614C105.972 9.10527 106.007 9.14092 106.05 9.14092C106.094 9.14092 106.129 9.10513 106.129 9.0614V6.4163C106.129 6.33453 106.129 6.25236 106.129 6.17046C106.129 6.12619 106.094 6.09094 106.05 6.09094C106.007 6.09094 105.972 6.12633 105.972 6.17046V6.17046Z" fill="#D0A764"/>
<path d="M106.148 30.7097C105.618 30.7097 105.184 30.2725 105.184 29.7369V9.36542C105.184 8.8308 105.618 8.39267 106.148 8.39267C106.679 8.39267 107.112 8.8308 107.112 9.36542V29.7369C107.112 30.2725 106.679 30.7097 106.148 30.7097Z" fill="#EFAF43"/>
<path d="M107.112 9.36541C107.112 9.27702 107.096 9.19247 107.074 9.11057L105.185 11.018V12.558L107.112 10.6121V9.36528V9.36541Z" fill="#DB514B"/>
<path d="M107.112 12.7888L105.185 14.7347V16.2748L107.112 14.3295V12.7888Z" fill="#DB514B"/>
<path d="M105.185 19.4989L107.112 17.5529V16.0134L105.185 17.9592V19.4989Z" fill="#DB514B"/>
<path d="M105.185 23.2157L107.112 21.27V19.7301L105.185 21.6756V23.2157Z" fill="#DB514B"/>
<path d="M105.185 26.4402L107.112 24.4941V22.9541L105.185 24.8999V26.4402Z" fill="#DB514B"/>
<path d="M105.185 29.7369C105.185 29.8612 105.21 29.9786 105.252 30.0878L107.112 28.2107V26.6708L105.185 28.6163V29.7369Z" fill="#DB514B"/>
<path d="M105.379 7.15566C105.205 6.93354 105.147 6.63576 105.167 6.35321C105.187 6.07026 105.277 5.79792 105.374 5.53194C105.605 4.89899 105.876 4.28036 106.184 3.68213C106.586 4.55787 106.891 5.49218 106.934 6.46148C106.944 6.68187 106.937 6.91923 106.81 7.09933C106.708 7.24419 106.541 7.33046 106.369 7.36942C106.009 7.45027 105.626 7.47134 105.379 7.15566Z" fill="#F09812"/>
<path d="M105.862 7.27772C105.775 7.26712 105.688 7.24512 105.614 7.19688C105.452 7.09218 105.386 6.87683 105.41 6.6836C105.434 6.49051 105.533 6.31571 105.64 6.15389C105.746 5.99194 105.865 5.83556 105.938 5.65533C105.981 5.55116 106.007 5.44116 106.033 5.3317C106.237 5.55262 106.426 5.80641 106.572 6.06762C106.727 6.34659 106.744 6.7337 106.583 7.01532C106.427 7.28806 106.155 7.31562 105.862 7.27759L105.862 7.27772Z" fill="#EC761E"/>
</g>
<g clip-path="url(#clip1_2_1296)">
<path d="M138 64.9823C138 70.5148 121.435 75 101 75C80.5657 75 64.0001 70.5148 64.0001 64.9823C64.0001 59.4497 80.5657 54.9646 101 54.9646C121.435 54.9646 138 59.4497 138 64.9823Z" fill="#2462AF"/>
<path d="M130.609 63.0229C130.609 67.2337 117.513 70.6468 101.358 70.6468C85.2025 70.6468 72.1064 67.2337 72.1064 63.0229V30.9288H130.609V63.0229H130.609Z" fill="#EFE2CF"/>
<path d="M130.609 39.2781V30.9287H72.1062V37.2218C72.1456 38.9348 73.5102 40.6831 75.1692 41.0448C76.5182 41.3384 77.9598 40.8852 79.287 41.2648C80.8309 41.7063 81.858 43.153 83.2212 44.0077C84.6942 44.9316 86.5975 45.1181 88.2193 44.4978C89.2304 44.1106 90.1462 43.4275 91.2185 43.2804C92.9797 43.0386 94.5533 44.276 96.1428 45.0802C99.6131 46.8358 104.02 46.5255 107.215 44.3002C107.741 43.9337 108.247 43.5144 108.85 43.2984C110.754 42.6175 112.673 44.1472 114.642 44.6046C116.412 45.0154 118.369 44.487 119.699 43.2387C120.315 42.6608 120.809 41.936 121.523 41.4869C122.933 40.5982 124.744 41.0103 126.403 41.1199C128.062 41.2294 130.263 40.9201 130.609 39.2781V39.2781Z" fill="#67594D"/>
<path d="M72.1062 56.2695C72.1062 60.4802 85.2025 63.8933 101.358 63.8933C117.513 63.8933 130.609 60.4802 130.609 56.2695V57.3584C130.609 61.5691 117.512 64.9823 101.358 64.9823C85.2024 64.9823 72.1062 61.5691 72.1062 57.3584V56.2695V56.2695Z" fill="#DB514B"/>
<path d="M72.1062 49.8062C72.1062 54.0168 85.2025 57.4301 101.358 57.4301C117.513 57.4301 130.609 54.0168 130.609 49.8062V50.8952C130.609 55.106 117.512 58.519 101.358 58.519C85.2024 58.519 72.1062 55.106 72.1062 50.8952V49.8062V49.8062Z" fill="#A57B4B"/>
<path d="M72.1062 42.0753C72.1062 46.2854 85.2025 49.699 101.358 49.699C117.513 49.699 130.609 46.2854 130.609 42.0753V43.1641C130.609 47.3744 117.512 50.788 101.358 50.788C85.2024 50.788 72.1062 47.3744 72.1062 43.1641V42.0753V42.0753Z" fill="#EFAF43"/>
<path d="M130.609 30.9287C130.609 35.139 117.513 38.5526 101.358 38.5526C85.2025 38.5526 72.1064 35.139 72.1064 30.9287C72.1064 26.7181 85.2027 23.3054 101.358 23.3054C117.513 23.3054 130.609 26.7181 130.609 30.9287Z" fill="#716156"/>
<path d="M82.1139 30.8121C82.1139 31.3704 80.4647 31.8229 78.431 31.8229C76.3974 31.8229 74.7485 31.3703 74.7485 30.8121C74.7485 30.2538 76.3973 29.8009 78.431 29.8009C80.4647 29.8009 82.1139 30.2538 82.1139 30.8121Z" fill="#67594D"/>
<path d="M78.1546 23.1788C78.8742 24.292 80.1188 24.9124 81.1804 25.6984C82.2419 26.4843 83.2272 27.6914 83.0018 29.0007C82.8478 29.8944 82.1338 30.6158 81.3083 30.9739C79.6565 31.6896 74.6882 31.7581 73.976 29.5295C73.6147 28.4012 73.953 27.5925 74.5685 26.9077C75.7001 25.6496 77.7688 24.811 78.1545 23.179L78.1546 23.1788Z" fill="#DB514B"/>
<path d="M81.3083 30.9739C79.6565 31.6896 74.6882 31.7581 73.976 29.5295C73.6147 28.4012 73.953 27.5925 74.5685 26.9077C74.422 27.364 74.313 27.8259 74.4352 28.2889C74.6363 29.0503 75.3404 29.5608 76.0402 29.9099C77.6606 30.7189 79.5004 31.0069 81.3081 30.9738L81.3083 30.9739Z" fill="#C34541"/>
<path d="M128.148 30.8121C128.148 31.3704 126.5 31.8229 124.466 31.8229C122.432 31.8229 120.783 31.3703 120.783 30.8121C120.783 30.2538 122.432 29.8009 124.466 29.8009C126.5 29.8009 128.148 30.2538 128.148 30.8121Z" fill="#67594D"/>
<path d="M124.19 23.1788C124.91 24.292 126.154 24.9124 127.215 25.6984C128.276 26.4843 129.262 27.6914 129.036 29.0007C128.882 29.8944 128.169 30.6158 127.343 30.9739C125.691 31.6896 120.723 31.7581 120.01 29.5295C119.65 28.4012 119.988 27.5925 120.603 26.9077C121.735 25.6496 123.804 24.811 124.19 23.179L124.19 23.1788Z" fill="#DB514B"/>
<path d="M127.343 30.9739C125.691 31.6896 120.723 31.7581 120.01 29.5295C119.65 28.4012 119.988 27.5925 120.603 26.9077C120.457 27.364 120.348 27.8259 120.47 28.2889C120.671 29.0503 121.375 29.5608 122.075 29.9099C123.696 30.7189 125.535 31.0069 127.343 30.9738V30.9739Z" fill="#C34541"/>
<path d="M106.458 36.6478C106.458 37.257 104.659 37.7507 102.441 37.7507C100.223 37.7507 98.4248 37.2571 98.4248 36.6478C98.4248 36.0389 100.223 35.5453 102.441 35.5453C104.659 35.5453 106.458 36.0388 106.458 36.6478Z" fill="#67594D"/>
<path d="M102.14 28.3234C102.925 29.5371 104.282 30.2148 105.44 31.0719C106.597 31.9289 107.672 33.2449 107.426 34.6727C107.258 35.6477 106.479 36.4346 105.579 36.8248C103.778 37.6049 98.3598 37.6795 97.5825 35.2499C97.1887 34.0194 97.5578 33.1373 98.2291 32.3908C99.4628 31.0184 101.719 30.1037 102.14 28.3236V28.3234Z" fill="#DB514B"/>
<path d="M105.579 36.8247C103.778 37.6048 98.3598 37.6794 97.5825 35.2498C97.1887 34.0192 97.5578 33.1371 98.2291 32.3906C98.0688 32.8877 97.9499 33.3911 98.0833 33.8967C98.303 34.7268 99.0705 35.2833 99.8341 35.6643C101.602 36.5468 103.607 36.8614 105.579 36.8248V36.8247Z" fill="#C34541"/>
<path d="M104.697 25.0734C104.697 25.52 103.378 25.8821 101.751 25.8821C100.123 25.8821 98.804 25.5199 98.804 25.0734C98.804 24.6264 100.123 24.2643 101.751 24.2643C103.378 24.2643 104.697 24.6264 104.697 25.0734Z" fill="#67594D"/>
<path d="M101.53 18.967C102.106 19.857 103.101 20.3536 103.95 20.9822C104.8 21.6112 105.588 22.5769 105.408 23.6246C105.284 24.3395 104.713 24.9165 104.052 25.203C102.731 25.7753 98.7561 25.8298 98.1865 24.0475C97.8978 23.1445 98.1684 22.4976 98.6605 21.9496C99.5658 20.943 101.221 20.2718 101.53 18.967V18.967Z" fill="#DB514B"/>
<path d="M104.053 25.203C102.731 25.7753 98.7562 25.8298 98.1867 24.0475C97.898 23.1445 98.1686 22.4976 98.6606 21.9496C98.5438 22.3149 98.456 22.6841 98.5543 23.0548C98.7151 23.664 99.2784 24.0722 99.8382 24.3517C101.134 24.9995 102.606 25.2295 104.053 25.2033L104.053 25.203Z" fill="#C34541"/>
<path d="M83.3162 33.2833C83.3162 33.412 82.9518 33.5162 82.5032 33.5162C82.0541 33.5162 81.6906 33.412 81.6906 33.2833C81.6906 33.1549 82.0541 33.0505 82.5032 33.0505C82.9518 33.0505 83.3162 33.155 83.3162 33.2833Z" fill="#67594D"/>
<path d="M83.4674 32.3906C83.4674 31.8538 83.0361 31.4187 82.5046 31.4187C81.9731 31.4187 81.5417 31.8538 81.5417 32.3906C81.5417 32.9271 81.973 33.3624 82.5046 33.3624C83.0361 33.3624 83.4674 32.9271 83.4674 32.3906Z" fill="#FEFEFE"/>
<path d="M88.5258 34.6816C88.5258 34.8099 88.1617 34.9141 87.7127 34.9141C87.2645 34.9141 86.9005 34.8099 86.9005 34.6816C86.9005 34.5529 87.2646 34.4482 87.7127 34.4482C88.1617 34.4482 88.5258 34.5529 88.5258 34.6816Z" fill="#67594D"/>
<path d="M88.6768 33.7884C88.6768 33.2519 88.2463 32.8166 87.714 32.8166C87.1825 32.8166 86.7516 33.2519 86.7516 33.7884C86.7516 34.3248 87.1827 34.7603 87.714 34.7603C88.2463 34.7603 88.6768 34.325 88.6768 33.7884Z" fill="#FEFEFE"/>
<path d="M94.0556 35.7304C94.0556 35.8587 93.6915 35.9629 93.243 35.9629C92.794 35.9629 92.4303 35.8587 92.4303 35.7304C92.4303 35.6018 92.794 35.4976 93.243 35.4976C93.6915 35.4976 94.0556 35.6018 94.0556 35.7304Z" fill="#67594D"/>
<path d="M94.2065 34.8372C94.2065 34.3003 93.7756 33.8658 93.2442 33.8658C92.7123 33.8658 92.2814 34.3003 92.2814 34.8372C92.2814 35.3741 92.7123 35.8086 93.2442 35.8086C93.7756 35.8086 94.2065 35.3741 94.2065 34.8372Z" fill="#FEFEFE"/>
<path d="M119.406 33.2833C119.406 33.412 119.77 33.5162 120.219 33.5162C120.668 33.5162 121.031 33.412 121.031 33.2833C121.031 33.1549 120.668 33.0505 120.219 33.0505C119.77 33.0505 119.406 33.155 119.406 33.2833Z" fill="#67594D"/>
<path d="M119.254 32.3906C119.254 31.8538 119.686 31.4187 120.217 31.4187C120.749 31.4187 121.18 31.8538 121.18 32.3906C121.18 32.9271 120.749 33.3624 120.217 33.3624C119.686 33.3624 119.254 32.9271 119.254 32.3906Z" fill="#FEFEFE"/>
<path d="M114.196 34.6816C114.196 34.8099 114.56 34.9141 115.009 34.9141C115.458 34.9141 115.821 34.8099 115.821 34.6816C115.821 34.5529 115.458 34.4482 115.009 34.4482C114.56 34.4482 114.196 34.5529 114.196 34.6816Z" fill="#67594D"/>
<path d="M114.045 33.7884C114.045 33.2519 114.476 32.8166 115.007 32.8166C115.539 32.8166 115.97 33.2519 115.97 33.7884C115.97 34.3248 115.539 34.7603 115.007 34.7603C114.476 34.7603 114.045 34.325 114.045 33.7884Z" fill="#FEFEFE"/>
<path d="M108.666 35.7304C108.666 35.8587 109.03 35.9629 109.479 35.9629C109.928 35.9629 110.292 35.8587 110.292 35.7304C110.292 35.6018 109.928 35.4976 109.479 35.4976C109.03 35.4976 108.666 35.6018 108.666 35.7304Z" fill="#67594D"/>
<path d="M108.515 34.8372C108.515 34.3003 108.946 33.8658 109.478 33.8658C110.01 33.8658 110.44 34.3003 110.44 34.8372C110.44 35.3741 110.01 35.8086 109.478 35.8086C108.946 35.8086 108.515 35.3741 108.515 34.8372Z" fill="#FEFEFE"/>
<path d="M108.913 25.246C108.913 25.3618 108.586 25.4552 108.182 25.4552C107.779 25.4552 107.452 25.3618 107.452 25.246C107.452 25.1311 107.779 25.0371 108.182 25.0371C108.586 25.0371 108.913 25.1311 108.913 25.246Z" fill="#67594D"/>
<path d="M109.048 24.4441C109.048 23.9618 108.661 23.571 108.184 23.571C107.706 23.571 107.319 23.9618 107.319 24.4441C107.319 24.9265 107.706 25.3171 108.184 25.3171C108.661 25.3171 109.048 24.9265 109.048 24.4441Z" fill="#FEFEFE"/>
<path d="M114.015 25.7699C114.015 25.8857 113.688 25.9791 113.286 25.9791C112.882 25.9791 112.555 25.8857 112.555 25.7699C112.555 25.6546 112.882 25.5611 113.286 25.5611C113.688 25.5611 114.015 25.6546 114.015 25.7699Z" fill="#67594D"/>
<path d="M114.151 24.9681C114.151 24.4857 113.764 24.095 113.286 24.095C112.809 24.095 112.422 24.4857 112.422 24.9681C112.422 25.4499 112.809 25.841 113.286 25.841C113.764 25.841 114.151 25.4499 114.151 24.9681Z" fill="#FEFEFE"/>
<path d="M119.424 26.7123C119.424 26.8275 119.097 26.9215 118.694 26.9215C118.291 26.9215 117.964 26.8275 117.964 26.7123C117.964 26.5964 118.291 26.503 118.694 26.503C119.097 26.503 119.424 26.5964 119.424 26.7123Z" fill="#67594D"/>
<path d="M119.56 25.9099C119.56 25.4281 119.173 25.0372 118.696 25.0372C118.217 25.0372 117.83 25.4281 117.83 25.9099C117.83 26.3922 118.217 26.7829 118.696 26.7829C119.173 26.7829 119.56 26.3922 119.56 25.9099V25.9099Z" fill="#FEFEFE"/>
<path d="M94.6057 25.246C94.6057 25.3618 94.9325 25.4552 95.3354 25.4552C95.7389 25.4552 96.0658 25.3618 96.0658 25.246C96.0658 25.1311 95.7389 25.0371 95.3354 25.0371C94.9325 25.0371 94.6057 25.1311 94.6057 25.246Z" fill="#67594D"/>
<path d="M94.4697 24.4441C94.4697 23.9618 94.8567 23.571 95.3341 23.571C95.8124 23.571 96.1994 23.9618 96.1994 24.4441C96.1994 24.9265 95.8124 25.3171 95.3341 25.3171C94.8567 25.3171 94.4697 24.9265 94.4697 24.4441Z" fill="#FEFEFE"/>
<path d="M89.5029 25.7699C89.5029 25.8857 89.8297 25.9791 90.2331 25.9791C90.6361 25.9791 90.963 25.8857 90.963 25.7699C90.963 25.6546 90.6361 25.5611 90.2331 25.5611C89.8297 25.5611 89.5029 25.6546 89.5029 25.7699Z" fill="#67594D"/>
<path d="M89.3672 24.9681C89.3672 24.4857 89.7543 24.095 90.2317 24.095C90.7091 24.095 91.0966 24.4857 91.0966 24.9681C91.0966 25.4499 90.7091 25.841 90.2317 25.841C89.7543 25.841 89.3672 25.4499 89.3672 24.9681V24.9681Z" fill="#FEFEFE"/>
<path d="M84.094 26.7123C84.094 26.8275 84.4208 26.9215 84.8239 26.9215C85.2272 26.9215 85.5536 26.8275 85.5536 26.7123C85.5536 26.5964 85.2272 26.503 84.8239 26.503C84.4208 26.503 84.094 26.5964 84.094 26.7123Z" fill="#67594D"/>
<path d="M83.958 25.9099C83.958 25.4281 84.3456 25.0372 84.823 25.0372C85.3003 25.0372 85.6874 25.4281 85.6874 25.9099C85.6874 26.3922 85.3003 26.7829 84.823 26.7829C84.3456 26.7829 83.958 26.3922 83.958 25.9099V25.9099Z" fill="#FEFEFE"/>
<path d="M87.9439 30.146C87.9439 30.3574 87.4634 30.5288 86.8703 30.5288C86.2774 30.5288 85.7969 30.3574 85.7969 30.146C85.7969 29.935 86.2774 29.7633 86.8703 29.7633C87.4634 29.7633 87.9439 29.935 87.9439 30.146Z" fill="#67594D"/>
<path d="M99.3147 31.0929C99.3147 31.3039 98.8342 31.4751 98.2412 31.4751C97.6486 31.4751 97.1681 31.3039 97.1681 31.0929C97.1681 30.8814 97.6486 30.7098 98.2412 30.7098C98.8342 30.7098 99.3147 30.8815 99.3147 31.0929Z" fill="#67594D"/>
<path d="M107.222 30.6824C107.222 30.8933 106.741 31.0651 106.148 31.0651C105.556 31.0651 105.075 30.8933 105.075 30.6824C105.075 30.471 105.556 30.2996 106.148 30.2996C106.741 30.2996 107.222 30.471 107.222 30.6824Z" fill="#67594D"/>
<path d="M94.6654 26.9215C94.6654 27.1325 94.1849 27.3037 93.592 27.3037C92.9989 27.3037 92.5184 27.1325 92.5184 26.9215C92.5184 26.71 92.9989 26.5384 93.592 26.5384C94.1849 26.5384 94.6654 26.71 94.6654 26.9215V26.9215Z" fill="#67594D"/>
<path d="M86.6936 5.72742C86.6936 5.80972 86.6936 5.89149 86.6936 5.97326V8.61889C86.6936 8.66262 86.7287 8.69841 86.772 8.69841C86.816 8.69841 86.8508 8.66249 86.8508 8.61889V5.97326C86.8508 5.89149 86.8508 5.80972 86.8508 5.72742C86.8508 5.68355 86.8158 5.6483 86.772 5.6483C86.7287 5.6483 86.6936 5.68355 86.6936 5.72742Z" fill="#D0A764"/>
<path d="M86.8703 30.2671C86.3403 30.2671 85.9064 29.829 85.9064 29.2943V8.9229C85.9064 8.38775 86.3404 7.94975 86.8703 7.94975C87.4005 7.94975 87.8344 8.38789 87.8344 8.9229V29.2943C87.8344 29.829 87.4003 30.2671 86.8703 30.2671Z" fill="#078179"/>
<path d="M87.8344 8.9229C87.8344 8.83438 87.8185 8.74983 87.7963 8.66753L85.9066 10.575V12.1149L87.8344 10.1696V8.92277V8.9229Z" fill="#BBE1E1"/>
<path d="M87.8344 12.3462L85.9066 14.2922V15.8323L87.8344 13.8864V12.3462Z" fill="#BBE1E1"/>
<path d="M85.9066 19.0563L87.8344 17.1104V15.5703L85.9066 17.5163V19.0563Z" fill="#BBE1E1"/>
<path d="M85.9066 22.773L87.8344 20.8274V19.287L85.9066 21.2329V22.773Z" fill="#BBE1E1"/>
<path d="M85.9066 25.9975L87.8344 24.0516V22.5114L85.9066 24.4574V25.9975Z" fill="#BBE1E1"/>
<path d="M85.9066 29.2943C85.9066 29.4182 85.9319 29.5361 85.9744 29.6453L87.8344 27.7682V26.2281L85.9066 28.1736V29.2943V29.2943Z" fill="#BBE1E1"/>
<path d="M86.1011 6.71275C85.927 6.49063 85.869 6.19284 85.8884 5.91069C85.9084 5.62775 85.9991 5.35501 86.0961 5.08956C86.3268 4.45608 86.5979 3.83784 86.9066 3.23975C87.3073 4.11495 87.6129 5.0498 87.6562 6.01897C87.6656 6.23936 87.6585 6.47685 87.5318 6.65655C87.43 6.8018 87.2625 6.88808 87.0902 6.92664C86.731 7.00748 86.3479 7.02856 86.1008 6.71288L86.1011 6.71275Z" fill="#F09812"/>
<path d="M86.5844 6.83521C86.4971 6.82408 86.4099 6.80248 86.3364 6.75424C86.1743 6.64967 86.1083 6.43379 86.1322 6.24096C86.1565 6.04787 86.2552 5.87307 86.3621 5.71125C86.4688 5.54944 86.5874 5.39252 86.661 5.21282C86.7025 5.10865 86.7292 4.99812 86.7549 4.88866C86.9591 5.10958 87.1481 5.3639 87.2939 5.62484C87.4499 5.90394 87.4667 6.29106 87.3054 6.57254C87.1495 6.84475 86.8776 6.87298 86.5845 6.83495L86.5844 6.83521Z" fill="#EC761E"/>
<path d="M93.4151 2.48779C93.4151 2.57009 93.4151 2.65186 93.4151 2.73416V5.37927C93.4151 5.42313 93.4502 5.45878 93.4935 5.45878C93.537 5.45878 93.5723 5.423 93.5723 5.37927V2.73416C93.5723 2.65186 93.5723 2.57009 93.5723 2.48779C93.5723 2.44406 93.5368 2.40868 93.4935 2.40868C93.4502 2.40868 93.4151 2.44406 93.4151 2.48779V2.48779Z" fill="#D0A764"/>
<path d="M93.5918 27.0274C93.0617 27.0274 92.628 26.5897 92.628 26.0546V5.68315C92.628 5.148 93.0617 4.71027 93.5918 4.71027C94.1219 4.71027 94.5559 5.148 94.5559 5.68315V26.0546C94.5559 26.5897 94.1219 27.0274 93.5918 27.0274Z" fill="#EFAF43"/>
<path d="M94.556 5.68328C94.556 5.59436 94.5402 5.51033 94.5178 5.4279L92.6281 7.33536V8.87546L94.556 6.92996V5.68315V5.68328Z" fill="#DB514B"/>
<path d="M94.556 9.10672L92.6281 11.0521V12.5926L94.556 10.6467V9.10672Z" fill="#DB514B"/>
<path d="M92.6281 15.8166L94.556 13.8707V12.3311L92.6281 14.2766V15.8166Z" fill="#DB514B"/>
<path d="M92.6281 19.5333L94.556 17.5879V16.0474L92.6281 17.9933V19.5333Z" fill="#DB514B"/>
<path d="M92.6281 22.7578L94.556 20.8119V19.2718L92.6281 21.2178V22.7578Z" fill="#DB514B"/>
<path d="M92.6281 26.0548C92.6281 26.1786 92.6534 26.2965 92.6955 26.4057L94.5562 24.5286V22.9886L92.6283 24.9341V26.0548H92.6281Z" fill="#DB514B"/>
<path d="M92.8226 3.473C92.6485 3.25088 92.5905 2.95323 92.6099 2.67055C92.6299 2.38813 92.7206 2.11539 92.8176 1.84981C93.0479 1.21686 93.3194 0.598624 93.6281 0C94.0288 0.875738 94.3344 1.81005 94.3774 2.77922C94.3871 2.99975 94.38 3.2371 94.2533 3.41681C94.1515 3.56219 93.984 3.64833 93.8118 3.68716C93.4521 3.76814 93.069 3.78868 92.8223 3.473H92.8226Z" fill="#F09812"/>
<path d="M93.3052 3.59559C93.2184 3.58446 93.1313 3.56299 93.0576 3.51475C92.8956 3.41005 92.8295 3.19416 92.8534 3.00147C92.8777 2.80838 92.9761 2.63304 93.0828 2.47163C93.1901 2.30981 93.3082 2.1529 93.3814 1.97319C93.4239 1.8685 93.4504 1.7585 93.4762 1.64903C93.6803 1.86995 93.8694 2.12427 94.0151 2.38522C94.1714 2.66432 94.1879 3.0517 94.0261 3.33292C93.8707 3.60526 93.5988 3.63336 93.3052 3.59532V3.59559Z" fill="#EC761E"/>
<path d="M111.819 27.3037C111.819 27.5152 111.339 27.6865 110.746 27.6865C110.153 27.6865 109.672 27.5152 109.672 27.3037C109.672 27.0923 110.153 26.9215 110.746 26.9215C111.339 26.9215 111.819 27.0923 111.819 27.3037Z" fill="#67594D"/>
<path d="M118.614 30.8121C118.614 31.0231 118.134 31.1943 117.541 31.1943C116.948 31.1943 116.468 31.0231 116.468 30.8121C116.468 30.6007 116.948 30.429 117.541 30.429C118.134 30.429 118.614 30.6007 118.614 30.8121Z" fill="#67594D"/>
<path d="M110.569 2.94647C110.569 3.02785 110.569 3.11001 110.569 3.19178V5.83689C110.569 5.88128 110.604 5.9164 110.648 5.9164C110.691 5.9164 110.726 5.88115 110.726 5.83689V3.19178C110.726 3.11001 110.726 3.02785 110.726 2.94647C110.726 2.90261 110.691 2.86696 110.648 2.86696C110.604 2.86696 110.569 2.90274 110.569 2.94647Z" fill="#D0A764"/>
<path d="M110.746 27.4857C110.216 27.4857 109.782 27.0479 109.782 26.5125V6.14156C109.782 5.60641 110.216 5.16841 110.746 5.16841C111.276 5.16841 111.71 5.60655 111.71 6.14156V26.5125C111.71 27.0481 111.276 27.4857 110.746 27.4857Z" fill="#86398D"/>
<path d="M111.71 6.14143C111.71 6.0529 111.694 5.96795 111.672 5.88658L109.782 7.79364V9.33414L111.71 7.38824V6.14143Z" fill="#B574AD"/>
<path d="M111.71 9.56473L109.782 11.5108V13.0508L111.71 11.105V9.56473Z" fill="#B574AD"/>
<path d="M109.782 16.2748L111.71 14.3295V12.7888L109.782 14.7347V16.2748Z" fill="#B574AD"/>
<path d="M109.782 19.9915L111.71 18.0456V16.506L109.782 18.4514V19.9915Z" fill="#B574AD"/>
<path d="M109.782 23.2157L111.71 21.27V19.7301L109.782 21.676V23.2157Z" fill="#B574AD"/>
<path d="M109.782 26.5125C109.782 26.6372 109.807 26.7544 109.85 26.8642L111.71 24.9867V23.4468L109.782 25.3927V26.5125V26.5125Z" fill="#B574AD"/>
<path d="M109.976 3.93168C109.802 3.70956 109.745 3.41178 109.764 3.12883C109.784 2.84642 109.874 2.57407 109.971 2.30809C110.202 1.67461 110.473 1.05638 110.782 0.458282C111.183 1.33362 111.488 2.26794 111.532 3.23711C111.541 3.45803 111.534 3.69485 111.407 3.87536C111.305 4.02021 111.137 4.10648 110.966 4.14505C110.606 4.22589 110.223 4.24749 109.976 3.93181L109.976 3.93168Z" fill="#F09812"/>
<path d="M110.459 4.05373C110.373 4.0426 110.285 4.0206 110.211 3.97329C110.049 3.8678 109.984 3.65284 110.007 3.45975C110.032 3.26665 110.13 3.09172 110.237 2.9299C110.344 2.76769 110.463 2.61157 110.536 2.43107C110.578 2.32744 110.604 2.21744 110.631 2.10797C110.835 2.32876 111.023 2.58268 111.169 2.84376C111.325 3.12286 111.341 3.50997 111.181 3.79146C111.025 4.0642 110.753 4.09137 110.46 4.05386L110.459 4.05373Z" fill="#EC761E"/>
<path d="M97.9549 6.76457C97.9549 6.84648 97.9549 6.92864 97.9549 7.01054V9.65565C97.9549 9.69991 97.99 9.73516 98.0335 9.73516C98.0768 9.73516 98.1122 9.69978 98.1122 9.65565V7.01054C98.1122 6.92864 98.1122 6.84648 98.1122 6.76457C98.1122 6.72084 98.0766 6.68506 98.0335 6.68506C97.99 6.68506 97.9549 6.72084 97.9549 6.76457Z" fill="#D0A764"/>
<path d="M98.1318 31.3042C97.6022 31.3042 97.168 30.8666 97.168 30.331V9.95967C97.168 9.42492 97.602 8.98679 98.1318 8.98679C98.6619 8.98679 99.0959 9.42492 99.0959 9.95967V30.331C99.0959 30.8667 98.6618 31.3042 98.1318 31.3042Z" fill="#86398D"/>
<path d="M99.0959 9.95965C99.0959 9.87112 99.08 9.78657 99.0577 9.7052L97.168 11.6123V13.1522L99.0959 11.2062V9.95952V9.95965Z" fill="#B574AD"/>
<path d="M99.0959 13.383L97.168 15.329V16.869L99.0959 14.9235V13.383Z" fill="#B574AD"/>
<path d="M97.168 20.0935L99.0959 18.1474V16.6075L97.168 18.5535V20.0935Z" fill="#B574AD"/>
<path d="M97.168 23.8102L99.0959 21.8642V20.3242L97.168 22.2697V23.8102Z" fill="#B574AD"/>
<path d="M97.168 27.0342L99.0959 25.0887V23.5486L97.168 25.4942V27.0342Z" fill="#B574AD"/>
<path d="M97.168 30.331C97.168 30.4553 97.1932 30.5729 97.2353 30.6824L99.0959 28.8048V27.2648L97.168 29.2108V30.331V30.331Z" fill="#B574AD"/>
<path d="M97.3624 7.7503C97.1885 7.52765 97.1304 7.23 97.1499 6.94745C97.1697 6.66451 97.2605 6.3923 97.3576 6.12631C97.588 5.49323 97.8594 4.87513 98.168 4.2765C98.5689 5.15224 98.8744 6.08656 98.9173 7.05573C98.9272 7.27665 98.9199 7.51361 98.7932 7.69358C98.6915 7.83843 98.524 7.9247 98.3517 7.96367C97.9922 8.04464 97.6095 8.06558 97.3623 7.75043L97.3624 7.7503Z" fill="#F09812"/>
<path d="M97.8452 7.87236C97.7584 7.86123 97.6712 7.83923 97.5976 7.79192C97.4355 7.68643 97.3696 7.47147 97.3934 7.27784C97.4177 7.08475 97.516 6.90995 97.6228 6.74853C97.73 6.58632 97.8482 6.42981 97.9218 6.2497C97.9643 6.14567 97.9904 6.03567 98.0161 5.92607C98.2203 6.14699 98.4095 6.40131 98.5551 6.66199C98.711 6.94136 98.7279 7.32847 98.5662 7.60969C98.4106 7.88243 98.1387 7.91013 97.8452 7.87249V7.87236Z" fill="#EC761E"/>
<path d="M117.364 6.40303C117.364 6.48533 117.364 6.56697 117.364 6.64927V9.29437C117.364 9.33824 117.399 9.37362 117.442 9.37362C117.486 9.37362 117.521 9.33824 117.521 9.29437V6.64927C117.521 6.56697 117.521 6.48533 117.521 6.40303C117.521 6.35917 117.486 6.32352 117.442 6.32352C117.399 6.32352 117.364 6.3593 117.364 6.40303V6.40303Z" fill="#D0A764"/>
<path d="M117.541 30.943C117.011 30.943 116.577 30.5049 116.577 29.9699V9.59839C116.577 9.06324 117.011 8.62564 117.541 8.62564C118.071 8.62564 118.505 9.06324 118.505 9.59839V29.9699C118.505 30.505 118.071 30.943 117.541 30.943Z" fill="#078179"/>
<path d="M118.505 9.59839C118.505 9.50946 118.489 9.42544 118.467 9.34354L116.577 11.251V12.7907L118.505 10.8452V9.59839V9.59839Z" fill="#BBE1E1"/>
<path d="M118.505 13.0218L116.577 14.9673V16.5077L118.505 14.5618V13.0218Z" fill="#BBE1E1"/>
<path d="M116.577 19.7318L118.505 17.7858V16.2463L116.577 18.1918V19.7318Z" fill="#BBE1E1"/>
<path d="M116.577 23.4485L118.505 21.5025V19.9625L116.577 21.9084V23.4485Z" fill="#BBE1E1"/>
<path d="M116.577 26.673L118.505 24.727V23.187L116.577 25.1329V26.673Z" fill="#BBE1E1"/>
<path d="M116.577 29.9699C116.577 30.0937 116.603 30.2116 116.645 30.3208L118.505 28.4437V26.9032L116.577 28.8492V29.9699V29.9699Z" fill="#BBE1E1"/>
<path d="M116.772 7.38863C116.597 7.16599 116.539 6.86833 116.559 6.58579C116.579 6.30284 116.669 6.03063 116.766 5.76465C116.998 5.1317 117.268 4.51386 117.577 3.91524C117.978 4.79097 118.284 5.72489 118.326 6.69406C118.336 6.91498 118.33 7.15234 118.203 7.33191C118.101 7.47676 117.933 7.56357 117.761 7.6024C117.402 7.68284 117.018 7.70378 116.772 7.38863Z" fill="#F09812"/>
<path d="M117.255 7.51122C117.168 7.49956 117.08 7.47769 117.006 7.43025C116.844 7.32515 116.778 7.1098 116.803 6.91671C116.827 6.72361 116.925 6.54828 117.032 6.387C117.139 6.22505 117.258 6.06814 117.331 5.88843C117.373 5.78387 117.4 5.67387 117.425 5.56427C117.629 5.78519 117.819 6.03991 117.965 6.30059C118.12 6.57956 118.137 6.96707 117.976 7.24829C117.82 7.5205 117.548 7.5486 117.255 7.51109L117.255 7.51122Z" fill="#EC761E"/>
<path d="M105.972 6.17046C105.972 6.25236 105.972 6.33453 105.972 6.4163V9.0614C105.972 9.10527 106.007 9.14092 106.05 9.14092C106.094 9.14092 106.129 9.10513 106.129 9.0614V6.4163C106.129 6.33453 106.129 6.25236 106.129 6.17046C106.129 6.12619 106.094 6.09094 106.05 6.09094C106.007 6.09094 105.972 6.12633 105.972 6.17046V6.17046Z" fill="#D0A764"/>
<path d="M106.148 30.7097C105.618 30.7097 105.184 30.2725 105.184 29.7369V9.36542C105.184 8.8308 105.618 8.39267 106.148 8.39267C106.679 8.39267 107.112 8.8308 107.112 9.36542V29.7369C107.112 30.2725 106.679 30.7097 106.148 30.7097Z" fill="#EFAF43"/>
<path d="M107.112 9.36541C107.112 9.27702 107.096 9.19247 107.074 9.11057L105.185 11.018V12.558L107.112 10.6121V9.36528V9.36541Z" fill="#DB514B"/>
<path d="M107.112 12.7888L105.185 14.7347V16.2748L107.112 14.3295V12.7888Z" fill="#DB514B"/>
<path d="M105.185 19.4989L107.112 17.5529V16.0134L105.185 17.9592V19.4989Z" fill="#DB514B"/>
<path d="M105.185 23.2157L107.112 21.27V19.7301L105.185 21.6756V23.2157Z" fill="#DB514B"/>
<path d="M105.185 26.4402L107.112 24.4941V22.9541L105.185 24.8999V26.4402Z" fill="#DB514B"/>
<path d="M105.185 29.7369C105.185 29.8612 105.21 29.9786 105.252 30.0878L107.112 28.2107V26.6708L105.185 28.6163V29.7369Z" fill="#DB514B"/>
<path d="M105.379 7.15566C105.205 6.93354 105.147 6.63576 105.167 6.35321C105.187 6.07026 105.277 5.79792 105.374 5.53194C105.605 4.89899 105.876 4.28036 106.184 3.68213C106.586 4.55787 106.891 5.49218 106.934 6.46148C106.944 6.68187 106.937 6.91923 106.81 7.09933C106.708 7.24419 106.541 7.33046 106.369 7.36942C106.009 7.45027 105.626 7.47134 105.379 7.15566Z" fill="#F09812"/>
<path d="M105.862 7.27772C105.775 7.26712 105.688 7.24512 105.614 7.19688C105.452 7.09218 105.386 6.87683 105.41 6.6836C105.434 6.49051 105.533 6.31571 105.64 6.15389C105.746 5.99194 105.865 5.83556 105.938 5.65533C105.981 5.55116 106.007 5.44116 106.033 5.3317C106.237 5.55262 106.426 5.80641 106.572 6.06762C106.727 6.34659 106.744 6.7337 106.583 7.01532C106.427 7.28806 106.155 7.31562 105.862 7.27759L105.862 7.27772Z" fill="#EC761E"/>
</g>
<path d="M101.467 104.215C92.1554 103.921 72.7737 104.023 54.1617 104.215C35.5499 104.407 16.2917 104.503 14.7408 116.592C13.1895 128.68 11.7541 145.47 36.1961 145.662C62.6926 145.87 97.3312 146.293 116.783 146.239C132.874 146.186 146.996 146.361 152.812 146.239C158.628 146.117 188.021 146.293 188 127.265C187.974 103.806 172.684 104.539 154.072 103.993C135.46 103.447 104.509 104.311 101.467 104.215V104.215Z" fill="#FEFEFE"/>
<path d="M30.8791 112.717H22.2191C21.9532 112.717 21.7633 112.754 21.6874 112.828C21.5734 112.94 21.5354 113.126 21.5354 113.386V137.186C21.5354 137.67 21.6874 138.042 21.9532 138.302C22.2191 138.599 22.5989 138.748 23.0167 138.748H31.9805C34.7913 138.748 36.9563 138.153 38.4755 137C39.9568 135.847 40.7165 134.248 40.7165 132.24C40.7165 130.269 40.2987 128.707 39.4631 127.629C38.6275 126.55 37.6019 125.769 36.3485 125.323C38.6275 123.985 39.7669 122.013 39.7669 119.448C39.7669 114.948 36.8043 112.717 30.8791 112.717V112.717ZM29.6256 118.741C30.7271 118.741 31.4868 118.927 31.9805 119.336C32.4364 119.745 32.6643 120.377 32.6643 121.233C32.6643 122.832 31.4488 123.613 29.0179 123.613H28.828V118.741H29.6256V118.741ZM29.6256 128.001C30.7271 128.001 31.4868 128.187 31.9805 128.521C32.4364 128.856 32.6643 129.488 32.6643 130.344C32.6643 131.199 32.3983 131.831 31.9046 132.24C31.4109 132.649 30.6132 132.835 29.5117 132.835H28.828V128.001H29.6256Z" fill="#FBC83E"/>
<path d="M42.5108 132.352C42.0901 132.352 41.7841 132.872 41.6311 133.951C41.5164 134.471 41.4782 134.992 41.4782 135.55C41.4782 136.108 41.5164 136.628 41.6311 137.149C41.7841 138.227 42.0901 138.748 42.5108 138.748H55.4014C55.8222 138.748 56.1281 138.227 56.3194 137.149C56.4342 136.628 56.4724 136.108 56.4724 135.55C56.4724 134.992 56.4342 134.471 56.3194 133.951C56.1281 132.872 55.8222 132.352 55.4014 132.352H52.7238V119.113H55.2866C55.7074 119.113 56.0135 118.592 56.1665 117.514C56.2812 116.993 56.3194 116.472 56.3194 115.915C56.3194 115.357 56.2812 114.836 56.1665 114.316C56.0135 113.237 55.7074 112.717 55.2866 112.717H42.4344C42.0136 112.717 41.7076 113.237 41.5164 114.316C41.4398 114.836 41.4016 115.357 41.4016 115.915C41.4016 116.472 41.4398 116.993 41.5164 117.514C41.7076 118.592 42.0136 119.113 42.4344 119.113H45.1502V132.352H42.5108V132.352Z" fill="#EA6297"/>
<path d="M66.4401 130.086H67.6132L71.1702 138.374C71.6621 139.092 72.3811 139.433 73.3649 139.433C74.3488 139.433 75.5975 138.903 77.1111 137.806C78.2084 137.011 78.8895 136.33 79.0787 135.725L74.3109 127.778C75.4083 127.021 76.2786 125.999 76.884 124.712C77.4895 123.464 77.7922 122.026 77.7922 120.474C77.7922 115.29 74.4622 112.717 67.8402 112.717H60.6127C59.6667 112.717 59.2126 113.171 59.2126 114.041V138.714C59.2126 139.092 60.4235 139.282 62.8452 139.282C65.2293 139.282 66.4401 139.092 66.4401 138.676V130.086V130.086ZM67.2347 119.415C68.2943 119.415 69.0511 119.642 69.543 120.058C69.9971 120.512 70.2241 121.193 70.2241 122.101C70.2241 124.107 69.0133 125.091 66.6293 125.091H66.4401V119.415H67.2347Z" fill="#8B80BA"/>
<path d="M90.758 118.253H95.1835C95.5995 118.253 95.9022 117.684 96.0912 116.508C96.1669 115.938 96.2047 115.369 96.2047 114.8C96.2047 114.231 96.1669 113.661 96.0912 113.092C95.9022 111.916 95.5995 111.346 95.1835 111.346H78.7299C78.3139 111.346 78.0113 111.916 77.8222 113.092C77.7465 113.661 77.7087 114.231 77.7087 114.8C77.7087 115.369 77.7465 115.938 77.8222 116.508C78.0113 117.684 78.3139 118.253 78.7299 118.253H83.2689V137.304C83.2689 137.797 84.517 138.063 87.0134 138.063C89.5098 138.063 90.758 137.797 90.758 137.304V118.253V118.253Z" fill="#5079BB"/>
<path d="M117.441 114.256C117.441 113.921 116.82 113.661 115.615 113.513L113.753 113.439C113.132 113.439 112.511 113.476 111.89 113.513C110.685 113.661 110.064 113.921 110.064 114.256V122.908H104.952V114.181C104.952 113.661 103.71 113.402 101.263 113.402C98.8164 113.402 97.5748 113.661 97.5748 114.181V138.802C97.5748 139.21 98.8164 139.433 101.263 139.433C103.71 139.433 104.952 139.21 104.952 138.802V130.261H110.064V138.802C110.064 139.21 111.306 139.433 113.753 139.433C116.199 139.433 117.441 139.21 117.441 138.802V114.256V114.256Z" fill="#FBC83E"/>
<path d="M122.071 138.063H128.409C136.156 138.063 140.047 133.369 140.047 124.018C140.047 119.629 139.047 116.423 137.008 114.4C134.97 112.377 131.967 111.346 128.039 111.346H121.849C121.367 111.346 120.959 111.537 120.663 111.881C120.329 112.262 120.181 112.759 120.181 113.407V136.307C120.181 137.49 120.811 138.063 122.071 138.063ZM127.668 118.598C129.262 118.598 130.411 118.98 131.152 119.705C131.856 120.43 132.227 122.033 132.227 124.438C132.227 126.88 131.893 128.636 131.189 129.666C130.485 130.697 129.447 131.231 128.076 131.231C127.705 131.231 127.483 131.155 127.409 131.002C127.334 130.888 127.297 130.544 127.297 130.01V118.598H127.668V118.598Z" fill="#EA6297"/>
<path d="M160.252 139.281C161.409 139.166 161.968 139.052 161.968 138.861L155.511 113.021C155.511 112.831 153.794 112.717 150.397 112.717C147.001 112.717 145.284 112.831 145.284 113.021L138.677 138.823C138.677 138.9 138.976 139.014 139.536 139.128C140.096 139.281 140.991 139.357 142.186 139.357C144.425 139.357 145.62 138.976 145.769 138.175L146.851 133.45H152.786L154.018 138.366C154.205 139.09 155.362 139.433 157.527 139.433C158.199 139.433 159.094 139.395 160.252 139.281ZM149.8 120.72H150.024L151.704 128.609H147.785L149.8 120.72Z" fill="#8B80BA"/>
<path d="M169.999 121.812L167.275 114.081C166.977 113.171 165.298 112.717 162.238 112.717C161.455 112.717 160.522 112.792 159.403 112.906C158.284 113.058 157.761 113.209 157.873 113.361L165.895 129.353V138.372C165.895 138.827 166.567 139.13 167.947 139.319C168.619 139.395 169.29 139.433 169.962 139.433C170.633 139.433 171.305 139.395 172.014 139.282C173.394 139.092 174.066 138.789 174.066 138.372V129.125L181.827 113.285C181.901 113.133 181.454 113.02 180.484 112.906C179.476 112.792 178.618 112.754 177.909 112.754C175.036 112.754 173.469 113.209 173.133 114.081L169.999 121.812V121.812Z" fill="#5079BB"/>
<path d="M85.3268 86.413C85.3268 86.2644 85.0459 86.1487 84.5006 86.0826L83.658 86.0496C83.3771 86.0496 83.0962 86.0662 82.8153 86.0826C82.2701 86.1487 81.9893 86.2644 81.9893 86.413V90.2618H79.6761V86.38C79.6761 86.1487 79.1144 86.0331 78.0073 86.0331C76.9003 86.0331 76.3386 86.1487 76.3386 86.38V97.3318C76.3386 97.5135 76.9003 97.6126 78.0073 97.6126C79.1144 97.6126 79.6761 97.5135 79.6761 97.3318V93.5325H81.9893V97.3318C81.9893 97.5135 82.551 97.6126 83.658 97.6126C84.7649 97.6126 85.3268 97.5135 85.3268 97.3318V86.413ZM95.9507 97.5795C96.4629 97.53 96.7107 97.4804 96.7107 97.3979L93.8524 86.1982C93.8524 86.1157 93.0923 86.0661 91.5887 86.0661C90.0852 86.0661 89.3252 86.1157 89.3252 86.1982L86.4007 97.3813C86.4007 97.4144 86.5329 97.4639 86.7808 97.5135C87.0286 97.5795 87.4251 97.6126 87.9539 97.6126C88.9452 97.6126 89.4739 97.4475 89.5399 97.1006L90.0191 95.0523H92.6462L93.1914 97.1831C93.2741 97.497 93.7862 97.6457 94.7445 97.6457C95.0419 97.6457 95.4385 97.6291 95.9507 97.5795ZM91.3244 89.535H91.4235L92.167 92.9544H90.4322L91.3244 89.535V89.535ZM100.313 97.563C100.726 97.5135 100.924 97.4309 100.924 97.2988V94.3419C101.8 94.3419 102.576 94.2097 103.237 93.9455C103.898 93.6812 104.394 93.3342 104.741 92.8882C105.418 92.0128 105.765 91.0382 105.765 89.981C105.765 88.7091 105.401 87.7345 104.691 87.0572C103.964 86.38 102.791 86.0496 101.155 86.0496H98.2473C97.9004 86.0496 97.7352 86.2313 97.7352 86.6112V97.3153C97.7352 97.53 98.2308 97.6457 99.2386 97.6457C99.536 97.6457 99.8996 97.6126 100.313 97.563V97.563ZM101.271 88.9238C101.734 88.9238 102.064 89.0229 102.246 89.2046C102.428 89.3864 102.51 89.7002 102.51 90.1462C102.51 90.5922 102.378 90.9226 102.114 91.1703C101.849 91.4181 101.519 91.5338 101.139 91.5338H100.924V88.9238H101.271V88.9238ZM109.73 97.563C110.144 97.5135 110.342 97.4309 110.342 97.2988V94.3419C111.217 94.3419 111.994 94.2097 112.655 93.9455C113.316 93.6812 113.811 93.3342 114.158 92.8882C114.836 92.0128 115.183 91.0382 115.183 89.981C115.183 88.7091 114.819 87.7345 114.109 87.0572C113.382 86.38 112.209 86.0496 110.573 86.0496H107.665C107.318 86.0496 107.153 86.2313 107.153 86.6112V97.3153C107.153 97.53 107.649 97.6457 108.656 97.6457C108.954 97.6457 109.317 97.6126 109.73 97.563V97.563ZM110.689 88.9238C111.151 88.9238 111.482 89.0229 111.664 89.2046C111.845 89.3864 111.928 89.7002 111.928 90.1462C111.928 90.5922 111.796 90.9226 111.531 91.1703C111.267 91.4181 110.937 91.5338 110.557 91.5338H110.342V88.9238H110.689V88.9238ZM120.42 89.9644L119.214 86.5947C119.082 86.1982 118.339 86 116.984 86C116.637 86 116.224 86.0331 115.728 86.0826C115.232 86.1487 115.001 86.2148 115.05 86.2808L118.603 93.2517V97.1831C118.603 97.3813 118.9 97.5135 119.512 97.5961C119.809 97.6291 120.106 97.6457 120.404 97.6457C120.701 97.6457 120.999 97.6291 121.312 97.5795C121.924 97.497 122.221 97.3648 122.221 97.1831V93.1526L125.658 86.2478C125.691 86.1817 125.493 86.1322 125.063 86.0826C124.617 86.0331 124.237 86.0166 123.923 86.0166C122.651 86.0166 121.957 86.2148 121.808 86.5947L120.42 89.9644Z" fill="#FEFEFE"/>
<path d="M188.134 144.154L195.27 151.764C195.602 152.117 196.156 152.135 196.51 151.804C196.863 151.472 196.881 150.917 196.55 150.564L189.414 142.954C189.082 142.6 188.527 142.583 188.173 142.914C187.82 143.245 187.803 143.801 188.134 144.154Z" fill="#FEFEFE"/>
<path d="M183.638 146.578L186.527 152.472C186.74 152.907 187.266 153.087 187.7 152.874C188.135 152.66 188.315 152.135 188.102 151.7L185.213 145.806C184.999 145.371 184.474 145.191 184.039 145.404C183.604 145.617 183.425 146.143 183.638 146.578V146.578Z" fill="#FEFEFE"/>
<path d="M191.533 140.273L199.425 140.887C199.908 140.925 200.33 140.564 200.368 140.081C200.406 139.598 200.044 139.176 199.561 139.139L191.67 138.523C191.187 138.486 190.765 138.847 190.727 139.33C190.69 139.813 191.051 140.235 191.533 140.273V140.273Z" fill="#FEFEFE"/>
<path d="M16.248 103.398L7.65765 93.1167C7.25879 92.6392 6.54868 92.5755 6.07136 92.9743C5.59382 93.3732 5.52999 94.0836 5.92902 94.5608L14.5196 104.843C14.9184 105.32 15.6286 105.383 16.1068 104.985C16.5843 104.586 16.647 103.875 16.248 103.398Z" fill="#FEFEFE"/>
<path d="M22.1912 100.62L18.9197 92.8505C18.6784 92.2776 18.0179 92.008 17.445 92.2494C16.8715 92.4909 16.6026 93.1514 16.8441 93.7249L20.1156 101.494C20.3571 102.068 21.0176 102.337 21.5902 102.095C22.1639 101.854 22.4327 101.194 22.1912 100.62V100.62Z" fill="#FEFEFE"/>
<path d="M11.6048 108.125L1.53177 106.757C0.915127 106.673 0.347661 107.104 0.263836 107.721C0.179772 108.337 0.612263 108.905 1.22828 108.988L11.3013 110.357C11.9181 110.441 12.4853 110.008 12.5694 109.392C12.653 108.776 12.2208 108.208 11.6048 108.125V108.125Z" fill="#FEFEFE"/>
<defs>
<clipPath id="clip0_2_1296">
<rect width="74" height="75" fill="white" transform="translate(64)"/>
</clipPath>
<clipPath id="clip1_2_1296">
<rect width="74" height="75" fill="white" transform="translate(64)"/>
</clipPath>
</defs>
</svg>
