<svg width="328" height="437" viewBox="0 0 328 437" fill="none" xmlns="http://www.w3.org/2000/svg">
<path d="M51.7692 155.783C49.6281 155.783 47.7213 156.724 46.3894 158.197C44.4773 153.586 39.94 150.336 34.6359 150.336C31.8813 150.336 29.3479 151.234 27.2654 152.722C23.8695 147.478 17.9788 144 11.2652 144C3.52398 144 -3.1238 148.619 -6.11076 155.247C-7.14521 154.799 -8.284 154.547 -9.48248 154.547C-14.1865 154.547 -18 158.359 -18 163.063H59.0493C59.0493 159.043 55.7894 155.783 51.7692 155.783V155.783Z" fill="#FEFEFE"/>
<path d="M319.769 11.7827C317.628 11.7827 315.721 12.7241 314.389 14.1974C312.477 9.5856 307.94 6.33597 302.636 6.33597C299.881 6.33597 297.348 7.23361 295.265 8.72161C291.87 3.47753 285.979 0 279.265 0C271.524 0 264.876 4.61896 261.889 11.2467C260.855 10.7989 259.716 10.5467 258.518 10.5467C253.814 10.5467 250 14.3588 250 19.0628H327.049C327.049 15.0429 323.789 11.7827 319.769 11.7827V11.7827Z" fill="#FEFEFE"/>
<path d="M270.408 425.503C268.536 425.503 266.802 426.021 265.267 426.861C262.468 423.298 258.129 421 253.246 421C248.53 421 244.317 423.136 241.512 426.492C239.613 425.199 237.322 424.44 234.851 424.44C228.306 424.44 223 429.747 223 436.293H281.197C281.197 430.334 276.366 425.503 270.408 425.503Z" fill="#FEFEFE"/>
</svg>
