<svg width="360" height="90" viewBox="0 0 360 90" fill="none" xmlns="http://www.w3.org/2000/svg">
<path d="M0 90C1.47135 89.1324 2.72999 87.7856 3.42379 86.245C5.04595 82.6433 4.55682 78.4985 4.28539 74.5575C4.01382 70.616 4.1091 66.2999 6.58557 63.2217C10.8893 57.8732 19.7086 59.163 25.0959 54.9069C33.8816 47.9667 28.5988 31.1664 37.8641 24.8798C47.0459 18.6505 58.6719 29.6374 69.7618 29.2751C84.4735 28.7945 93.4931 8.75356 108.18 9.72976C119.86 10.5063 126.985 24.3772 138.527 26.3252C154.932 29.0948 166.088 7.02979 182.688 5.90114C194.812 5.0765 205.583 15.8525 217.677 14.6485C224.784 13.941 230.731 9.23157 236.989 5.78934C243.247 2.34665 251.462 0.238626 257.2 4.49154C262.208 8.2035 263.441 15.4517 268.276 19.3862C280.364 29.2242 301.312 10.6759 312.964 21.0255C317.198 24.7872 318.102 30.964 320.836 35.9251C322.01 38.0545 323.569 39.9485 325.394 41.5453C332.325 47.6104 336.364 56.3159 337.104 65.4955C337.547 70.9885 339.559 76.3455 343.112 80.5712C347.338 85.5954 353.515 88.7448 360 89.6911V0H0V90V90Z" fill="#3F7CBF"/>
<path d="M343.687 -2C297.739 3.1587 213.588 11.0214 127.497 11.0214C83.9237 11.0214 39.8554 9.00654 0 3.60999V4.21145C39.8731 9.60534 83.9339 11.6177 127.497 11.618C216.998 11.6177 304.38 3.12518 348.971 -2H343.687Z" fill="#5D9FD6"/>
<path d="M5.5854 18.1752L0.773396 3.98816L14.048 5.81321L5.5854 18.1752Z" fill="#5D9FD6"/>
<path d="M60.7603 22.8984L54.7269 9.18631L68.1102 9.8443L60.7603 22.8984Z" fill="#5D9FD6"/>
<path d="M32.9077 20.9268L27.7086 6.87662L41.0281 8.33776L32.9077 20.9268Z" fill="#5D9FD6"/>
<path d="M88.0788 24.1181L81.8625 10.4884L95.253 10.9668L88.0788 24.1181Z" fill="#5D9FD6"/>
<path d="M142.496 24.697L135.607 11.3938L149.006 11.2043L142.496 24.697Z" fill="#5D9FD6"/>
<path d="M170.612 24.1021L163.477 10.9291L176.869 10.4905L170.612 24.1021Z" fill="#5D9FD6"/>
<path d="M194.503 23.3469L187.154 10.2928L200.537 9.63495L194.503 23.3469Z" fill="#5D9FD6"/>
<path d="M221.405 21.9896L213.865 9.04383L227.238 8.19089L221.405 21.9896Z" fill="#5D9FD6"/>
<path d="M248.214 20.3529L240.303 7.63071L253.645 6.39114L248.214 20.3529Z" fill="#5D9FD6"/>
<path d="M275.172 18.3642L267.299 5.6189L280.644 4.41849L275.172 18.3642Z" fill="#5D9FD6"/>
<path d="M302.546 16.0047L294.581 3.31746L307.917 2.01981L302.546 16.0047Z" fill="#5D9FD6"/>
<path d="M329.828 13.2675L321.709 0.677503L335.029 -0.782074L329.828 13.2675Z" fill="#5D9FD6"/>
<path d="M355.498 10.4392L347.348 -2H360L355.498 10.4392Z" fill="#5D9FD6"/>
<path d="M356.91 2C317.113 9.6329 174.638 35.163 49.5113 35.162C32.5909 35.162 15.9881 34.6951 0 33.6543V34.2416C15.9912 35.2817 32.5934 35.7481 49.5113 35.7481C178.076 35.7472 324.872 8.82136 360 2H356.91V2Z" fill="#438BCA"/>
<path d="M2.77303 47.3376L0 40.6055V33.9375L10.2952 34.6898L2.77303 47.3376Z" fill="#438BCA"/>
<path d="M29.729 48.3258L23.7535 34.8783L36.9021 35.4768L29.729 48.3258Z" fill="#438BCA"/>
<path d="M57.1566 48.5162L50.3839 35.4517L63.5451 35.2597L57.1566 48.5162Z" fill="#438BCA"/>
<path d="M84.0131 48.004L77.0664 35.0307L90.2237 34.6628L84.0131 48.004Z" fill="#438BCA"/>
<path d="M109.472 46.9231L102.304 34.0707L115.454 33.4776L109.472 46.9231Z" fill="#438BCA"/>
<path d="M137.395 45.1671L129.81 32.5568L142.932 31.5329L137.395 45.1671Z" fill="#438BCA"/>
<path d="M164.921 42.8251L157.101 30.358L170.203 29.0899L164.921 42.8251Z" fill="#438BCA"/>
<path d="M188.293 40.59L180.272 28.2532L193.35 26.7707L188.293 40.59Z" fill="#438BCA"/>
<path d="M214.579 37.5773L206.379 25.3582L219.435 23.6852L214.579 37.5773Z" fill="#438BCA"/>
<path d="M240.758 34.2959L232.208 22.3189L245.21 20.2694L240.758 34.2959Z" fill="#438BCA"/>
<path d="M267.061 30.6603L258.546 18.6577L271.553 16.6467L267.061 30.6603Z" fill="#438BCA"/>
<path d="M293.749 26.6345L285.146 14.6953L298.139 12.589L293.749 26.6345Z" fill="#438BCA"/>
<path d="M320.323 22.2446L311.576 10.4108L324.542 8.14688L320.323 22.2446Z" fill="#438BCA"/>
<path d="M345.309 17.866L336.477 6.09523L349.427 3.73859L345.309 17.866Z" fill="#438BCA"/>
</svg>
