<svg width="182" height="543" viewBox="0 0 182 543" fill="none" xmlns="http://www.w3.org/2000/svg">
<path d="M175.5 300L177.256 304.744L182 306.5L177.256 308.256L175.5 313L173.744 308.256L169 306.5L173.744 304.744L175.5 300Z" fill="#B8CCFF"/>
<path d="M17.5 388L19.2556 392.744L24 394.5L19.2556 396.256L17.5 401L15.7444 396.256L11 394.5L15.7444 392.744L17.5 388Z" fill="#B8CCFF"/>
<path d="M109.5 526L111.796 532.204L118 534.5L111.796 536.796L109.5 543L107.204 536.796L101 534.5L107.204 532.204L109.5 526Z" fill="#B8CCFF"/>
<path d="M6.5 0L8.25559 4.74441L13 6.5L8.25559 8.25559L6.5 13L4.74441 8.25559L0 6.5L4.74441 4.74441L6.5 0Z" fill="#B8CCFF"/>
</svg>
